G04*
G04 #@! TF.GenerationSoftware,Altium Limited,Altium Designer,22.1.2 (22)*
G04*
G04 Layer_Physical_Order=1*
G04 Layer_Color=255*
%FSLAX25Y25*%
%MOIN*%
G70*
G04*
G04 #@! TF.SameCoordinates,916DC4FC-BA67-46E0-AC62-78C5DE96CB0C*
G04*
G04*
G04 #@! TF.FilePolarity,Positive*
G04*
G01*
G75*
%ADD11C,0.02362*%
%ADD12C,0.01000*%
%ADD15R,0.04842X0.07087*%
%ADD16R,0.03937X0.08268*%
%ADD17R,0.19291X0.24410*%
%ADD18R,0.07087X0.04528*%
%ADD19R,0.07087X0.04842*%
%ADD20R,0.04528X0.07087*%
%ADD21R,0.07087X0.03937*%
%ADD22R,0.01181X0.05709*%
%ADD23R,0.05709X0.01181*%
%ADD24R,0.05118X0.04331*%
%ADD25R,0.10630X0.10236*%
%ADD26R,0.00984X0.03150*%
%ADD27R,0.03150X0.00984*%
%ADD28R,0.03937X0.07087*%
%ADD29R,0.01378X0.01968*%
%ADD30R,0.04331X0.07087*%
%ADD31R,0.02756X0.06299*%
%ADD32R,0.04724X0.05512*%
%ADD33R,0.04724X0.08661*%
%ADD34R,0.06299X0.05512*%
%ADD59C,0.03150*%
%ADD60C,0.01968*%
%ADD61C,0.06693*%
%ADD62R,0.06693X0.06693*%
%ADD63R,0.06693X0.06693*%
%ADD64C,0.07874*%
%ADD65C,0.02500*%
%ADD66C,0.02362*%
%ADD67C,0.03937*%
G36*
X176304Y119692D02*
X175123Y119203D01*
X165535Y128791D01*
Y131879D01*
X162879Y134535D01*
X159121D01*
X156465Y131879D01*
Y130070D01*
X155748Y129353D01*
X137141D01*
Y129863D01*
X135328D01*
Y131268D01*
X135520D01*
Y140732D01*
X131729D01*
X131311Y141741D01*
X132049Y142648D01*
X140000D01*
X141663Y143337D01*
X159791Y161465D01*
X162879D01*
X165535Y164121D01*
Y167879D01*
X162879Y170535D01*
X159121D01*
X156465Y167879D01*
Y164791D01*
X139026Y147352D01*
X131000D01*
X129337Y146663D01*
X124337Y141663D01*
X123648Y140000D01*
Y137974D01*
X122739Y137066D01*
X121648Y137518D01*
Y140000D01*
X121458Y140458D01*
X118458Y143458D01*
X118000Y143648D01*
X99000D01*
X98542Y143458D01*
X95542Y140458D01*
X95352Y140000D01*
Y129421D01*
X95084Y129020D01*
X94858D01*
Y122980D01*
X103142D01*
Y123541D01*
X103543Y123809D01*
X108925D01*
X109327Y122718D01*
Y120858D01*
X115051D01*
Y122718D01*
X115453Y123809D01*
X118000D01*
X118458Y123999D01*
X118648Y124457D01*
Y126321D01*
X119645Y127318D01*
X120736Y126866D01*
Y125500D01*
X123500D01*
Y129543D01*
X123413D01*
X122961Y130634D01*
X127663Y135337D01*
X128352Y137000D01*
Y139026D01*
X129205Y139878D01*
X130386Y139389D01*
Y131268D01*
X130624D01*
Y129863D01*
X128858D01*
Y124139D01*
X137141D01*
Y124648D01*
X156722D01*
X158386Y125338D01*
X158817Y125769D01*
X159121Y125465D01*
X162209D01*
X171648Y116026D01*
Y91474D01*
X170556Y91022D01*
X169634Y91945D01*
X166366D01*
X164055Y89634D01*
Y86366D01*
X164370Y86051D01*
X159491Y81172D01*
X139619D01*
X139166Y82264D01*
X145841Y88938D01*
X146189Y89779D01*
Y99000D01*
X145841Y99841D01*
X138841Y106841D01*
X138000Y107189D01*
X128492D01*
X122841Y112841D01*
X122000Y113189D01*
X117571D01*
Y115292D01*
X113028D01*
Y115792D01*
X112528D01*
Y118761D01*
X108485D01*
X108485Y118761D01*
X107544Y119074D01*
Y119074D01*
X107433Y119074D01*
X103501D01*
Y115810D01*
X103001D01*
Y115310D01*
X98457D01*
Y113189D01*
X49548D01*
X28268Y134469D01*
Y148055D01*
X28713D01*
X31024Y150366D01*
Y153634D01*
X28713Y155945D01*
X25445D01*
X23134Y153634D01*
Y150366D01*
X25445Y148055D01*
X25890D01*
Y135863D01*
X24799Y135410D01*
X16368Y143841D01*
X15528Y144189D01*
X10945D01*
Y144634D01*
X8634Y146945D01*
X5366D01*
X3055Y144634D01*
Y141366D01*
X5366Y139055D01*
X8634D01*
X10945Y141366D01*
Y141811D01*
X15035D01*
X25566Y131280D01*
X25114Y130189D01*
X13000D01*
X12159Y129841D01*
X8949Y126630D01*
X8634Y126945D01*
X5366D01*
X3055Y124634D01*
Y121366D01*
X5366Y119055D01*
X8634D01*
X10945Y121366D01*
Y124634D01*
X10630Y124949D01*
X13492Y127811D01*
X26507D01*
X46734Y107585D01*
X47575Y107236D01*
X83745D01*
X83880Y106055D01*
X82472Y104647D01*
Y102521D01*
X83850Y101143D01*
Y99142D01*
X82139D01*
Y91562D01*
X80958Y91516D01*
X79672Y92801D01*
X79240D01*
Y90551D01*
Y88301D01*
X79672D01*
X80990Y89619D01*
Y90779D01*
X82139Y90858D01*
X82171Y90858D01*
X87863D01*
Y92528D01*
X89044Y93017D01*
X93076Y88985D01*
X93917Y88637D01*
X94818D01*
Y86669D01*
Y83141D01*
X92540D01*
X89841Y85841D01*
X89000Y86189D01*
X87863D01*
Y89143D01*
X82139D01*
Y86190D01*
X81001D01*
X80160Y85841D01*
X77545Y83226D01*
X76454Y83678D01*
Y84501D01*
X73190D01*
X69926D01*
Y81189D01*
X68159D01*
X67676Y81672D01*
Y85518D01*
X61361D01*
Y80755D01*
X61298Y80576D01*
X60180Y80113D01*
X59022Y81270D01*
Y82254D01*
X55963D01*
Y79589D01*
X56626D01*
X56906Y79191D01*
X56292Y78010D01*
X52367D01*
Y77565D01*
X51186Y77076D01*
X50826Y77435D01*
X50394D01*
Y75185D01*
Y72935D01*
X50826D01*
X51186Y73295D01*
X52367Y72806D01*
Y72482D01*
X57000D01*
X58113Y71370D01*
X57623Y70189D01*
X45583D01*
X33142Y82630D01*
Y86673D01*
X30189D01*
Y88622D01*
X33142D01*
Y93756D01*
X27750D01*
X27531Y93846D01*
X25433D01*
X22331Y96949D01*
Y103551D01*
X18485D01*
X15808Y106228D01*
X16260Y107319D01*
X18500D01*
Y109787D01*
X14457D01*
Y109122D01*
X13365Y108670D01*
X10807Y111228D01*
X10945Y111366D01*
Y114634D01*
X8634Y116945D01*
X5366D01*
X3055Y114634D01*
Y111366D01*
X5366Y109055D01*
X8634D01*
X9126Y109547D01*
X16803Y101870D01*
Y95268D01*
X20649D01*
X24100Y91817D01*
X24858Y91503D01*
Y88622D01*
X27811D01*
Y86673D01*
X24858D01*
Y83080D01*
X24396Y82888D01*
X20649Y79142D01*
X16803D01*
Y70858D01*
X22331D01*
Y77460D01*
X25729Y80858D01*
X27236D01*
X27455Y80949D01*
X31460D01*
X44250Y68159D01*
X45091Y67811D01*
X69926D01*
Y64501D01*
X73190D01*
X76454D01*
Y67811D01*
X82139D01*
Y59859D01*
X83811D01*
Y58328D01*
X83220Y57737D01*
Y56263D01*
X84070Y55413D01*
X83797Y54232D01*
X74043D01*
X73203Y53884D01*
X57159Y37841D01*
X56811Y37000D01*
Y13000D01*
X57159Y12159D01*
X67277Y2042D01*
X66787Y861D01*
X861D01*
Y14454D01*
X3374D01*
Y19784D01*
Y25115D01*
X861D01*
Y53430D01*
X3374D01*
Y57186D01*
Y60942D01*
X861D01*
Y69956D01*
X1835Y70457D01*
X2042Y70457D01*
X4500D01*
Y75000D01*
Y79543D01*
X2042D01*
X1835Y79543D01*
X861Y80044D01*
Y94366D01*
X1835Y94866D01*
X2042Y94866D01*
X4500D01*
Y99410D01*
Y103953D01*
X2042D01*
X1835Y103953D01*
X861Y104453D01*
Y176304D01*
X82165D01*
X82780Y175378D01*
X82780Y175123D01*
Y164927D01*
X77453D01*
X75789Y164238D01*
X73000Y161449D01*
X70442Y164006D01*
X68779Y164695D01*
X16432D01*
X16213Y164839D01*
X15504Y165626D01*
Y170694D01*
X11694Y174504D01*
X6306D01*
X2496Y170694D01*
Y165306D01*
X6306Y161496D01*
X10499D01*
X10988Y160315D01*
X7618Y156945D01*
X3055D01*
Y149055D01*
X10945D01*
Y153618D01*
X17317Y159991D01*
X67805D01*
X69980Y157815D01*
Y152858D01*
X76020D01*
Y157815D01*
X78427Y160222D01*
X82780D01*
Y149772D01*
X103268D01*
Y175123D01*
X103268Y175378D01*
X103882Y176304D01*
X112367D01*
X113331Y175779D01*
X113331Y175123D01*
Y163075D01*
X123976D01*
X134622D01*
Y175123D01*
X134622Y175779D01*
X135586Y176304D01*
X176304D01*
Y119692D01*
D02*
G37*
G36*
X121000Y140000D02*
Y133000D01*
X118000Y130000D01*
Y124457D01*
X115453D01*
Y124500D01*
X112189D01*
X108925D01*
Y124457D01*
X103543D01*
Y125500D01*
X99000D01*
Y126000D01*
X98500D01*
Y129421D01*
X96000D01*
Y140000D01*
X99000Y143000D01*
X118000D01*
X121000Y140000D01*
D02*
G37*
G36*
X143811Y98507D02*
Y90458D01*
X143128Y89931D01*
X142051Y90509D01*
Y98142D01*
X136327D01*
Y91540D01*
X136064Y91277D01*
X134991Y91015D01*
X134991Y91015D01*
X134991Y91015D01*
X128086D01*
Y90131D01*
X127064Y89708D01*
X126678Y89869D01*
X125548Y90999D01*
X126037Y92180D01*
X126920D01*
Y99086D01*
X126920D01*
Y103980D01*
X128000Y104811D01*
X137507D01*
X143811Y98507D01*
D02*
G37*
G36*
X164055Y76366D02*
X166366Y74055D01*
X169634D01*
X170556Y74978D01*
X171648Y74526D01*
Y72042D01*
X170556Y71590D01*
X169800Y72347D01*
X168500D01*
Y68000D01*
X167500D01*
Y72347D01*
X166200D01*
X163654Y69800D01*
Y69698D01*
X162472Y69209D01*
X158731Y72950D01*
X157890Y73298D01*
X134991D01*
Y76819D01*
X164055D01*
Y76366D01*
D02*
G37*
G36*
X94818Y66983D02*
Y66983D01*
X97082D01*
Y56807D01*
X94507Y54232D01*
X86203D01*
X85930Y55413D01*
X86779Y56263D01*
Y57737D01*
X86189Y58328D01*
Y59859D01*
X87863D01*
Y63538D01*
X89044Y64334D01*
X89220Y64263D01*
X90263Y63221D01*
X91737D01*
X92779Y64263D01*
Y65737D01*
X92515Y66001D01*
X93884Y67370D01*
X94818Y66983D01*
D02*
G37*
G36*
X98859Y101137D02*
X101811D01*
Y101000D01*
X102159Y100159D01*
X102297Y100022D01*
X102889Y99086D01*
Y92180D01*
X104456D01*
Y91779D01*
X105546D01*
Y95633D01*
X106546D01*
Y91779D01*
X107637D01*
Y92180D01*
X120325D01*
X120814Y90999D01*
X119181Y89367D01*
X116882D01*
X116041Y89018D01*
X115693Y88178D01*
X116041Y87337D01*
X116882Y86989D01*
X119674D01*
X120514Y87337D01*
X122540Y89362D01*
X123798D01*
X124528Y88474D01*
X124180Y87634D01*
X123138Y86592D01*
Y85118D01*
X124180Y84075D01*
X125655D01*
X126262Y84683D01*
X128086D01*
Y82731D01*
Y78794D01*
Y74857D01*
Y70920D01*
Y66983D01*
X134991D01*
Y70921D01*
X157398D01*
X160811Y67507D01*
Y32000D01*
X161159Y31159D01*
X164055Y28264D01*
Y22055D01*
X169219D01*
X169671Y20964D01*
X168327Y19620D01*
X164575D01*
X162912Y18931D01*
X158069Y14088D01*
X157380Y12425D01*
Y7842D01*
X154890Y5352D01*
X144577D01*
X144125Y6443D01*
X144841Y7159D01*
X145189Y8000D01*
Y15880D01*
X147540Y18232D01*
X154142D01*
Y23956D01*
X145859D01*
Y23956D01*
X144866Y23402D01*
X143850Y23876D01*
Y26988D01*
Y30524D01*
X144252D01*
Y31516D01*
X141677D01*
Y32016D01*
X141177D01*
Y33508D01*
X140012D01*
Y36945D01*
X140012D01*
X139285Y37947D01*
X139476Y38857D01*
X140861D01*
Y47141D01*
X135137D01*
Y38857D01*
X135397D01*
X135939Y37747D01*
X135445Y36945D01*
X132553D01*
X132056Y37750D01*
X132596Y38858D01*
X132665D01*
Y47142D01*
X131287D01*
Y47902D01*
X130939Y48742D01*
X126841Y52841D01*
X126266Y53079D01*
X125779Y54263D01*
Y55737D01*
X124737Y56779D01*
X124344D01*
X123924Y57330D01*
X124508Y58511D01*
X125354D01*
Y58913D01*
X126920D01*
Y61177D01*
X129365D01*
X130206Y61525D01*
X131492Y62811D01*
X136327D01*
Y59858D01*
X136671D01*
X137221Y58737D01*
Y57263D01*
X138263Y56221D01*
X139737D01*
X140779Y57263D01*
Y58737D01*
X141329Y59858D01*
X142051D01*
Y68142D01*
X136327D01*
Y65189D01*
X131000D01*
X130159Y64841D01*
X128873Y63554D01*
X126920D01*
Y65818D01*
X125354D01*
Y66220D01*
X124263D01*
Y62365D01*
X123263D01*
Y66220D01*
X122172D01*
Y65818D01*
X102889D01*
Y62476D01*
X102811Y62287D01*
Y58492D01*
X100641Y56322D01*
X99460Y56812D01*
Y66983D01*
X101724D01*
Y70920D01*
Y74456D01*
X102125D01*
Y75546D01*
X98271D01*
Y76547D01*
X102125D01*
Y77637D01*
X101724D01*
Y82731D01*
Y86669D01*
Y91015D01*
X94818D01*
X93863Y91561D01*
X89583Y95841D01*
X88743Y96189D01*
X87863D01*
Y99142D01*
X86228D01*
Y101143D01*
X87480Y102395D01*
X98859D01*
Y101137D01*
D02*
G37*
G36*
X171648Y50042D02*
X170556Y49590D01*
X169800Y50346D01*
X168500D01*
Y46000D01*
X167500D01*
Y50346D01*
X166200D01*
X164370Y48517D01*
X163189Y49006D01*
Y53295D01*
X164055Y54055D01*
X171648D01*
Y50042D01*
D02*
G37*
G36*
X118637Y54399D02*
X118985Y53558D01*
X121384Y51159D01*
X121800Y50987D01*
X122221Y49737D01*
Y48263D01*
X122811Y47672D01*
Y36569D01*
X122142Y35665D01*
X113858D01*
Y35665D01*
X112713Y35752D01*
Y40290D01*
X113643Y41221D01*
X113737D01*
X113804Y41287D01*
X115720D01*
Y38858D01*
X120854D01*
Y47142D01*
X115720D01*
Y44713D01*
X113804D01*
X113737Y44780D01*
X112263D01*
X111221Y43737D01*
Y43643D01*
X109789Y42211D01*
X100290Y32713D01*
X88237D01*
Y33684D01*
X85189D01*
Y34000D01*
X84841Y34841D01*
X84076Y35605D01*
X84011Y35901D01*
X84894Y37082D01*
X92270D01*
X93111Y37430D01*
X94902Y39220D01*
X95737D01*
X96780Y40263D01*
Y41098D01*
X102107Y46425D01*
X103308Y46175D01*
X104263Y45221D01*
X105737D01*
X106780Y46263D01*
Y47098D01*
X112841Y53159D01*
X113189Y54000D01*
Y58913D01*
X118637D01*
Y54399D01*
D02*
G37*
G36*
X123748Y30688D02*
Y30524D01*
X124150D01*
Y25020D01*
Y21083D01*
X127685D01*
Y20976D01*
X127988D01*
Y18290D01*
X126807Y17801D01*
X126396Y18211D01*
X125185Y18713D01*
X123320D01*
X122142Y18721D01*
Y23854D01*
X113858D01*
Y23854D01*
X112713Y23941D01*
Y30445D01*
X113858Y30531D01*
Y30531D01*
X122142D01*
Y31377D01*
X122586Y31521D01*
X123748Y30688D01*
D02*
G37*
G36*
X68583Y41793D02*
X71230D01*
Y41293D01*
X71730D01*
Y39043D01*
X72162D01*
X72405Y39286D01*
X73586Y38797D01*
Y36688D01*
X73159Y35841D01*
X72811Y35000D01*
Y33673D01*
X70017D01*
X69392Y34290D01*
X69179Y34573D01*
Y34933D01*
X64679D01*
Y34501D01*
X65525Y33655D01*
X65975Y33121D01*
X65635Y32152D01*
X65220Y31737D01*
Y30263D01*
X66263Y29221D01*
X67737D01*
X68328Y29811D01*
X69858D01*
Y27949D01*
X72170D01*
X72624Y26768D01*
X71627Y25771D01*
Y25339D01*
X76127D01*
Y25771D01*
X75131Y26768D01*
X75585Y27949D01*
X78142D01*
Y33673D01*
X76025D01*
X75536Y34854D01*
X75715Y35033D01*
X76063Y35874D01*
Y36286D01*
X76933D01*
Y38271D01*
X77933D01*
Y36286D01*
X78935D01*
X79159Y35745D01*
X80039Y34865D01*
X79954Y33684D01*
X79954Y33684D01*
Y27959D01*
X82621D01*
X83110Y26778D01*
X82210Y25878D01*
Y25446D01*
X86710D01*
Y25878D01*
X85810Y26778D01*
X86299Y27959D01*
X88237D01*
Y29287D01*
X101000D01*
X102211Y29789D01*
X108196Y35773D01*
X109287Y35321D01*
Y21287D01*
Y19000D01*
X109789Y17789D01*
X111789Y15789D01*
X113000Y15287D01*
X114736D01*
Y11594D01*
X118000D01*
X121264D01*
Y15287D01*
X124476D01*
X126949Y12814D01*
Y6953D01*
X130467D01*
X130783Y6533D01*
X130195Y5352D01*
X108974D01*
X107945Y6382D01*
Y10945D01*
X100055D01*
Y3055D01*
X104618D01*
X105631Y2042D01*
X105142Y861D01*
X81213D01*
X80723Y2042D01*
X82051Y3370D01*
X82366Y3055D01*
X85634D01*
X87945Y5366D01*
Y8634D01*
X85634Y10945D01*
X82366D01*
X80055Y8634D01*
Y5366D01*
X80370Y5051D01*
X78874Y3555D01*
X77677D01*
X77225Y4646D01*
X77945Y5366D01*
Y8634D01*
X75634Y10945D01*
X72366D01*
X70055Y8634D01*
Y8189D01*
X67493D01*
X62409Y13273D01*
X62898Y14454D01*
X64398D01*
Y19784D01*
Y25115D01*
X62370D01*
X61535Y25115D01*
X61189Y26153D01*
Y35508D01*
X67799Y42118D01*
X68583Y41793D01*
D02*
G37*
G36*
X176304Y19274D02*
Y861D01*
X158722D01*
X158233Y2042D01*
X161161Y4970D01*
X162562Y5240D01*
X165306Y2496D01*
X170694D01*
X174504Y6306D01*
Y11694D01*
X171537Y14661D01*
X171614Y16254D01*
X175123Y19763D01*
X176304Y19274D01*
D02*
G37*
%LPC*%
G36*
X163045Y157158D02*
X161500D01*
Y152720D01*
X165937D01*
Y154265D01*
X163045Y157158D01*
D02*
G37*
G36*
X160500D02*
X158955D01*
X156063Y154265D01*
Y152720D01*
X160500D01*
Y157158D01*
D02*
G37*
G36*
X58800Y156346D02*
X57500D01*
Y152500D01*
X61347D01*
Y153800D01*
X58800Y156346D01*
D02*
G37*
G36*
X56500D02*
X55200D01*
X52653Y153800D01*
Y152500D01*
X56500D01*
Y156346D01*
D02*
G37*
G36*
X134622Y162075D02*
X124476D01*
Y149370D01*
X134622D01*
Y162075D01*
D02*
G37*
G36*
X123476D02*
X113331D01*
Y149370D01*
X123476D01*
Y162075D01*
D02*
G37*
G36*
X61347Y151500D02*
X57500D01*
Y147653D01*
X58800D01*
X61347Y150200D01*
Y151500D01*
D02*
G37*
G36*
X56500D02*
X52653D01*
Y150200D01*
X55200Y147653D01*
X56500D01*
Y151500D01*
D02*
G37*
G36*
X165937Y151720D02*
X161500D01*
Y147283D01*
X163045D01*
X165937Y150175D01*
Y151720D01*
D02*
G37*
G36*
X160500D02*
X156063D01*
Y150175D01*
X158955Y147283D01*
X160500D01*
Y151720D01*
D02*
G37*
G36*
X76421Y151228D02*
X73500D01*
Y147185D01*
X76421D01*
Y151228D01*
D02*
G37*
G36*
X72500D02*
X69579D01*
Y147185D01*
X72500D01*
Y151228D01*
D02*
G37*
G36*
X76421Y146185D02*
X73500D01*
Y142142D01*
X76421D01*
Y146185D01*
D02*
G37*
G36*
X72500D02*
X69579D01*
Y142142D01*
X72500D01*
Y146185D01*
D02*
G37*
G36*
X87016Y141134D02*
X84547D01*
Y136500D01*
X87016D01*
Y141134D01*
D02*
G37*
G36*
X83547D02*
X81079D01*
Y136500D01*
X83547D01*
Y141134D01*
D02*
G37*
G36*
X8800Y137346D02*
X7500D01*
Y133500D01*
X11347D01*
Y134800D01*
X8800Y137346D01*
D02*
G37*
G36*
X6500D02*
X5200D01*
X2654Y134800D01*
Y133500D01*
X6500D01*
Y137346D01*
D02*
G37*
G36*
X87016Y135500D02*
X84547D01*
Y130866D01*
X87016D01*
Y135500D01*
D02*
G37*
G36*
X83547D02*
X81079D01*
Y130866D01*
X83547D01*
Y135500D01*
D02*
G37*
G36*
X11347Y132500D02*
X7500D01*
Y128654D01*
X8800D01*
X11347Y131200D01*
Y132500D01*
D02*
G37*
G36*
X6500D02*
X2654D01*
Y131200D01*
X5200Y128654D01*
X6500D01*
Y132500D01*
D02*
G37*
G36*
X93228Y129421D02*
X89185D01*
Y126500D01*
X93228D01*
Y129421D01*
D02*
G37*
G36*
X88185D02*
X84142D01*
Y126500D01*
X88185D01*
Y129421D01*
D02*
G37*
G36*
X127264Y129543D02*
X124500D01*
Y125500D01*
X127264D01*
Y129543D01*
D02*
G37*
G36*
X93228Y125500D02*
X89185D01*
Y122579D01*
X93228D01*
Y125500D01*
D02*
G37*
G36*
X88185D02*
X84142D01*
Y122579D01*
X88185D01*
Y125500D01*
D02*
G37*
G36*
X127264Y124500D02*
X124500D01*
Y120457D01*
X127264D01*
Y124500D01*
D02*
G37*
G36*
X123500D02*
X120736D01*
Y120457D01*
X123500D01*
Y124500D01*
D02*
G37*
G36*
X163045Y121158D02*
X161500D01*
Y116720D01*
X165937D01*
Y118265D01*
X163045Y121158D01*
D02*
G37*
G36*
X160500D02*
X158955D01*
X156063Y118265D01*
Y116720D01*
X160500D01*
Y121158D01*
D02*
G37*
G36*
X102501Y119074D02*
X98457D01*
Y116310D01*
X102501D01*
Y119074D01*
D02*
G37*
G36*
X117571Y118761D02*
X113528D01*
Y116292D01*
X117571D01*
Y118761D01*
D02*
G37*
G36*
X137543Y118454D02*
X133499D01*
Y115690D01*
X137543D01*
Y118454D01*
D02*
G37*
G36*
X132499D02*
X128456D01*
Y115690D01*
X132499D01*
Y118454D01*
D02*
G37*
G36*
X137543Y114690D02*
X133499D01*
Y111926D01*
X137543D01*
Y114690D01*
D02*
G37*
G36*
X132499D02*
X128456D01*
Y111926D01*
X132499D01*
Y114690D01*
D02*
G37*
G36*
X165937Y115720D02*
X161500D01*
Y111284D01*
X163045D01*
X165937Y114175D01*
Y115720D01*
D02*
G37*
G36*
X160500D02*
X156063D01*
Y114175D01*
X158955Y111284D01*
X160500D01*
Y115720D01*
D02*
G37*
G36*
X23543Y113256D02*
X19500D01*
Y110787D01*
X23543D01*
Y113256D01*
D02*
G37*
G36*
X18500D02*
X14457D01*
Y110787D01*
X18500D01*
Y113256D01*
D02*
G37*
G36*
X23543Y109787D02*
X19500D01*
Y107319D01*
X23543D01*
Y109787D01*
D02*
G37*
G36*
X23142Y124665D02*
X14858D01*
Y119532D01*
X23142D01*
Y120123D01*
X25247D01*
X25937Y119433D01*
X26417D01*
X27074Y118776D01*
Y105567D01*
X24858D01*
Y100433D01*
X33142D01*
Y105567D01*
X30926D01*
Y119574D01*
X30362Y120936D01*
X29567Y121731D01*
Y123063D01*
X28063Y124567D01*
X25937D01*
X25345Y123975D01*
X23142D01*
Y124665D01*
D02*
G37*
G36*
X5500Y103953D02*
Y99910D01*
X8165D01*
Y103953D01*
X5500D01*
D02*
G37*
G36*
X76454Y99543D02*
X73690D01*
Y95500D01*
X76454D01*
Y99543D01*
D02*
G37*
G36*
X72690D02*
X69926D01*
Y95500D01*
X72690D01*
Y99543D01*
D02*
G37*
G36*
X8165Y98909D02*
X5500D01*
Y94866D01*
X8165D01*
Y98909D01*
D02*
G37*
G36*
X154264Y98543D02*
X151500D01*
Y94500D01*
X154264D01*
Y98543D01*
D02*
G37*
G36*
X150500D02*
X147736D01*
Y94500D01*
X150500D01*
Y98543D01*
D02*
G37*
G36*
X76454Y94500D02*
X73190D01*
X69926D01*
Y92407D01*
X68745Y91917D01*
X67861Y92801D01*
X67429D01*
Y90551D01*
Y88301D01*
X67861D01*
X68745Y89185D01*
X69926Y88696D01*
Y85501D01*
X73190D01*
X76454D01*
Y87985D01*
X77635Y88475D01*
X77808Y88301D01*
X78240D01*
Y90551D01*
Y92801D01*
X77808D01*
X77635Y92628D01*
X76454Y93117D01*
Y94500D01*
D02*
G37*
G36*
X66429Y92801D02*
X65997D01*
X64679Y91483D01*
Y91051D01*
X66429D01*
Y92801D01*
D02*
G37*
G36*
X154264Y93500D02*
X151500D01*
Y89457D01*
X154264D01*
Y93500D01*
D02*
G37*
G36*
X150500D02*
X147736D01*
Y89457D01*
X150500D01*
Y93500D01*
D02*
G37*
G36*
X66429Y90051D02*
X64679D01*
Y89619D01*
X65997Y88301D01*
X66429D01*
Y90051D01*
D02*
G37*
G36*
X59022Y85919D02*
X55963D01*
Y83254D01*
X59022D01*
Y85919D01*
D02*
G37*
G36*
X54963D02*
X51904D01*
Y83254D01*
X54963D01*
Y85919D01*
D02*
G37*
G36*
Y82254D02*
X51904D01*
Y79589D01*
X54963D01*
Y82254D01*
D02*
G37*
G36*
X49394Y77435D02*
X48962D01*
X47644Y76117D01*
Y75685D01*
X49394D01*
Y77435D01*
D02*
G37*
G36*
X5500Y79543D02*
Y75500D01*
X8165D01*
Y79543D01*
X5500D01*
D02*
G37*
G36*
X49394Y74685D02*
X47644D01*
Y74253D01*
X48962Y72935D01*
X49394D01*
Y74685D01*
D02*
G37*
G36*
X28500Y75264D02*
X24457D01*
Y72500D01*
X28500D01*
Y75264D01*
D02*
G37*
G36*
X8165Y74500D02*
X5500D01*
Y70457D01*
X8165D01*
Y74500D01*
D02*
G37*
G36*
X28500Y71500D02*
X24457D01*
Y68736D01*
X28500D01*
Y71500D01*
D02*
G37*
G36*
X33543Y75264D02*
X29500D01*
Y72000D01*
Y68736D01*
X31469D01*
X31921Y67645D01*
X29087Y64811D01*
X28823Y64174D01*
X27988Y63374D01*
X27095Y63296D01*
X26750Y63296D01*
X23968D01*
Y63698D01*
X22091D01*
Y59548D01*
Y55399D01*
X23968D01*
X24772Y54550D01*
Y51288D01*
X24220Y50737D01*
Y49263D01*
X25263Y48221D01*
X26737D01*
X27779Y49263D01*
Y50737D01*
X27150Y51367D01*
Y55667D01*
X28276Y55800D01*
X29079Y55800D01*
X31425D01*
X32228Y55800D01*
Y55800D01*
X32421D01*
X33602Y55354D01*
Y51119D01*
X33220Y50737D01*
Y49263D01*
X34263Y48221D01*
X35737D01*
X36779Y49263D01*
Y50737D01*
X35980Y51536D01*
Y54609D01*
X37099Y55330D01*
X37725Y55050D01*
Y52087D01*
X38073Y51246D01*
X39220Y50098D01*
Y49263D01*
X40263Y48221D01*
X41737D01*
X42779Y49263D01*
Y50737D01*
X41737Y51780D01*
X40902D01*
X40102Y52579D01*
Y55762D01*
X41268Y55800D01*
X42071Y55800D01*
X45221D01*
Y63296D01*
X42071D01*
X41268Y63296D01*
X40087Y63296D01*
X36937Y63296D01*
X35756Y63296D01*
X34563D01*
X34111Y64388D01*
X37157Y67433D01*
X38063D01*
X39567Y68937D01*
Y71063D01*
X38063Y72567D01*
X35937D01*
X34724Y71355D01*
X33543Y71767D01*
Y75264D01*
D02*
G37*
G36*
X21091Y63698D02*
X19213D01*
Y63296D01*
X16087D01*
X15283Y63296D01*
X14102Y63296D01*
X10953Y63296D01*
X9772Y63296D01*
X6622D01*
Y60942D01*
X4374D01*
Y57186D01*
Y53430D01*
X7236D01*
Y55800D01*
X10575Y55800D01*
X11756Y55800D01*
X14906Y55800D01*
X15941Y55449D01*
Y51458D01*
X15221Y50737D01*
Y49263D01*
X16263Y48221D01*
X17737D01*
X18779Y49263D01*
Y50737D01*
X18319Y51198D01*
Y54705D01*
X19213Y55399D01*
X21091D01*
Y59548D01*
Y63698D01*
D02*
G37*
G36*
X76454Y63501D02*
X73690D01*
Y59457D01*
X76454D01*
Y63501D01*
D02*
G37*
G36*
X72690D02*
X69926D01*
Y59457D01*
X72690D01*
Y63501D01*
D02*
G37*
G36*
X65504Y61336D02*
X61854D01*
Y58080D01*
X65504D01*
Y61336D01*
D02*
G37*
G36*
X60854D02*
X57205D01*
Y58080D01*
X60854D01*
Y61336D01*
D02*
G37*
G36*
X65504Y57080D02*
X61854D01*
Y53824D01*
X65504D01*
Y57080D01*
D02*
G37*
G36*
X60854D02*
X57205D01*
Y53824D01*
X60854D01*
Y57080D01*
D02*
G37*
G36*
X7236Y25115D02*
X4374D01*
Y20284D01*
X7236D01*
Y25115D01*
D02*
G37*
G36*
X47375Y20580D02*
X45412D01*
X44024Y19191D01*
Y17228D01*
X45412Y15840D01*
X47375D01*
X48764Y17228D01*
Y19191D01*
X47375Y20580D01*
D02*
G37*
G36*
X15879D02*
X13916D01*
X12528Y19191D01*
Y17228D01*
X13916Y15840D01*
X15879D01*
X17268Y17228D01*
Y19191D01*
X15879Y20580D01*
D02*
G37*
G36*
X7236Y19284D02*
X4374D01*
Y14454D01*
X7236D01*
Y19284D01*
D02*
G37*
G36*
X104969Y141134D02*
X102500D01*
Y136500D01*
X104969D01*
Y141134D01*
D02*
G37*
G36*
X117968D02*
X115500D01*
Y136500D01*
X117968D01*
Y141134D01*
D02*
G37*
G36*
X101500D02*
X99032D01*
Y136500D01*
X101500D01*
Y141134D01*
D02*
G37*
G36*
X114500D02*
X112031D01*
Y136500D01*
X114500D01*
Y141134D01*
D02*
G37*
G36*
X117968Y135500D02*
X115500D01*
Y130866D01*
X117968D01*
Y135500D01*
D02*
G37*
G36*
X114500D02*
X112031D01*
Y130866D01*
X114500D01*
Y135500D01*
D02*
G37*
G36*
X104969D02*
X102500D01*
Y130866D01*
X104969D01*
Y135500D01*
D02*
G37*
G36*
X101500D02*
X99032D01*
Y130866D01*
X101500D01*
Y135500D01*
D02*
G37*
G36*
X103543Y129421D02*
X99500D01*
Y126500D01*
X103543D01*
Y129421D01*
D02*
G37*
G36*
X115453Y129543D02*
X112689D01*
Y125500D01*
X115453D01*
Y129543D01*
D02*
G37*
G36*
X111689D02*
X108925D01*
Y125500D01*
X111689D01*
Y129543D01*
D02*
G37*
G36*
X154264Y68543D02*
X151500D01*
Y64500D01*
X154264D01*
Y68543D01*
D02*
G37*
G36*
X150500D02*
X147736D01*
Y64500D01*
X150500D01*
Y68543D01*
D02*
G37*
G36*
X154264Y63500D02*
X151500D01*
Y59457D01*
X154264D01*
Y63500D01*
D02*
G37*
G36*
X150500D02*
X147736D01*
Y59457D01*
X150500D01*
Y63500D01*
D02*
G37*
G36*
X153074Y47543D02*
X150310D01*
Y43499D01*
X153074D01*
Y47543D01*
D02*
G37*
G36*
X149310D02*
X146546D01*
Y43499D01*
X149310D01*
Y47543D01*
D02*
G37*
G36*
X153074Y42499D02*
X150310D01*
Y38456D01*
X153074D01*
Y42499D01*
D02*
G37*
G36*
X149310D02*
X146546D01*
Y38456D01*
X149310D01*
Y42499D01*
D02*
G37*
G36*
X154544Y36169D02*
X150501D01*
Y33405D01*
X154544D01*
Y36169D01*
D02*
G37*
G36*
X149501D02*
X145457D01*
Y33405D01*
X149501D01*
Y36169D01*
D02*
G37*
G36*
X144252Y33508D02*
X142177D01*
Y32516D01*
X144252D01*
Y33508D01*
D02*
G37*
G36*
X154544Y32405D02*
X150501D01*
Y29641D01*
X154544D01*
Y32405D01*
D02*
G37*
G36*
X149501D02*
X145457D01*
Y29641D01*
X149501D01*
Y32405D01*
D02*
G37*
G36*
X154074Y15637D02*
X151310D01*
Y11594D01*
X154074D01*
Y15637D01*
D02*
G37*
G36*
X150310D02*
X147547D01*
Y11594D01*
X150310D01*
Y15637D01*
D02*
G37*
G36*
X154074Y10594D02*
X151310D01*
Y6550D01*
X154074D01*
Y10594D01*
D02*
G37*
G36*
X150310D02*
X147547D01*
Y6550D01*
X150310D01*
Y10594D01*
D02*
G37*
G36*
X70730Y40793D02*
X68980D01*
Y40361D01*
X70298Y39043D01*
X70730D01*
Y40793D01*
D02*
G37*
G36*
X67861Y37683D02*
X67429D01*
Y35933D01*
X69179D01*
Y36365D01*
X67861Y37683D01*
D02*
G37*
G36*
X66429D02*
X65997D01*
X64679Y36365D01*
Y35933D01*
X66429D01*
Y37683D01*
D02*
G37*
G36*
X86710Y24446D02*
X82210D01*
Y24014D01*
X82769Y23456D01*
X82279Y22275D01*
X79720D01*
X79552Y22275D01*
X78376Y22264D01*
X76155D01*
X75665Y23445D01*
X76127Y23907D01*
Y24339D01*
X71627D01*
Y23907D01*
X72090Y23445D01*
X71600Y22264D01*
X69457D01*
Y19500D01*
X74000D01*
Y19000D01*
X74500D01*
Y15736D01*
X78376D01*
X78543Y15736D01*
X79720Y15747D01*
X83596D01*
Y19011D01*
X84096D01*
Y19511D01*
X88639D01*
Y22275D01*
X86640D01*
X86151Y23456D01*
X86710Y24014D01*
Y24446D01*
D02*
G37*
G36*
X65398Y25115D02*
Y20284D01*
X68260D01*
Y25115D01*
X65398D01*
D02*
G37*
G36*
X88639Y18511D02*
X84596D01*
Y15747D01*
X88639D01*
Y18511D01*
D02*
G37*
G36*
X73500Y18500D02*
X69457D01*
Y15736D01*
X73500D01*
Y18500D01*
D02*
G37*
G36*
X68260Y19284D02*
X65398D01*
Y14454D01*
X68260D01*
Y19284D01*
D02*
G37*
G36*
X95800Y11347D02*
X94500D01*
Y7500D01*
X98347D01*
Y8800D01*
X95800Y11347D01*
D02*
G37*
G36*
X93500D02*
X92200D01*
X89653Y8800D01*
Y7500D01*
X93500D01*
Y11347D01*
D02*
G37*
G36*
X121264Y10594D02*
X118500D01*
Y6551D01*
X121264D01*
Y10594D01*
D02*
G37*
G36*
X117500D02*
X114736D01*
Y6551D01*
X117500D01*
Y10594D01*
D02*
G37*
G36*
X98347Y6500D02*
X94500D01*
Y2654D01*
X95800D01*
X98347Y5200D01*
Y6500D01*
D02*
G37*
G36*
X93500D02*
X89653D01*
Y5200D01*
X92200Y2654D01*
X93500D01*
Y6500D01*
D02*
G37*
%LPD*%
D11*
X30449Y63449D02*
X37000Y70000D01*
X30449Y59745D02*
Y63449D01*
X30252Y59548D02*
X30449Y59745D01*
X27000Y121574D02*
X29000Y119574D01*
X27000Y121574D02*
Y122000D01*
X29000Y103000D02*
Y119574D01*
X19049Y122049D02*
X26951D01*
X19000Y122098D02*
X19049Y122049D01*
X26951D02*
X27000Y122000D01*
D12*
X139110Y32008D02*
X141669D01*
X134197Y27095D02*
X139110Y32008D01*
X126323Y32016D02*
X128882D01*
X133803Y27095D02*
X134197D01*
X128882Y32016D02*
X133803Y27095D01*
X133016Y25913D02*
X134197Y27095D01*
X133016Y19417D02*
Y25913D01*
X84929Y73928D02*
X85001Y73999D01*
X79749Y73928D02*
X84929D01*
X139000Y92532D02*
X139244Y92287D01*
Y87247D02*
Y92287D01*
X145000Y89779D02*
Y99000D01*
X131539Y81952D02*
X137173D01*
X145000Y89779D01*
X136961Y17490D02*
Y19410D01*
Y17490D02*
X137896Y16555D01*
X139947D01*
X142066Y18675D01*
X136953Y19417D02*
X136961Y19410D01*
X142066Y18675D02*
Y18832D01*
X134197Y27095D02*
X136953Y24339D01*
Y19417D02*
Y24339D01*
X141669Y32008D02*
X141677Y32016D01*
X116882Y88178D02*
X119674D01*
X122047Y90551D01*
X124314D02*
X127008Y87858D01*
X122047Y90551D02*
X124314D01*
X127008Y87858D02*
X131539D01*
X85000Y57000D02*
Y64109D01*
X129868Y11152D02*
X130451Y11734D01*
X129811Y11095D02*
X129868Y11152D01*
X72194Y43979D02*
X74874D01*
X71608Y42565D02*
X72822Y41351D01*
X71608Y43393D02*
X72194Y43979D01*
X71608Y42565D02*
Y43393D01*
X72822Y41351D02*
X75288D01*
X77244Y39394D01*
Y38460D02*
X77433Y38271D01*
X77244Y38460D02*
Y39394D01*
X55857Y82754D02*
X60136Y78475D01*
X60978D01*
X55463Y82754D02*
X55857D01*
X64143Y75310D02*
X64536D01*
X60978Y78475D02*
X64143Y75310D01*
X141677Y22173D02*
X144202D01*
X145281Y21094D02*
X148721D01*
X144202Y22173D02*
X145281Y21094D01*
X148721D02*
X150001D01*
X144000Y16373D02*
X148721Y21094D01*
X129868Y11152D02*
Y16319D01*
X131047Y17498D02*
Y18342D01*
X129868Y16319D02*
X131047Y17498D01*
X130905Y36833D02*
X131047Y36691D01*
Y35846D02*
Y36691D01*
X130098Y43000D02*
Y47902D01*
Y37640D02*
Y43000D01*
Y37640D02*
X130905Y36833D01*
Y36833D02*
Y36833D01*
X136961Y34780D02*
Y36699D01*
X137999Y37737D01*
Y42999D01*
X136953Y34772D02*
X136961Y34780D01*
X38913Y52087D02*
X41000Y50000D01*
X38913Y52087D02*
Y59548D01*
X139000Y92532D02*
X139189Y92721D01*
X136294Y89826D02*
X139000Y92532D01*
X85039Y95038D02*
Y103584D01*
X103000Y101000D02*
Y103998D01*
X85039Y103584D02*
X102585D01*
X92048Y81952D02*
X98271D01*
X13000Y129000D02*
X27000D01*
X47575Y108425D01*
X27079Y133977D02*
X49055Y112000D01*
X15528Y143000D02*
X48315Y110213D01*
X121260D01*
X125732Y95633D02*
Y105741D01*
X27079Y133977D02*
Y152000D01*
X121260Y110213D02*
X125732Y105741D01*
X49055Y112000D02*
X122000D01*
X128000Y106000D01*
X47575Y108425D02*
X117575D01*
X122000Y104000D01*
X89000Y85000D02*
X92048Y81952D01*
X85001Y85000D02*
X89000D01*
X85001Y85001D02*
X85001Y85000D01*
X73811Y31000D02*
X74000Y30811D01*
X67000Y31000D02*
X73811D01*
X84096Y30822D02*
X84274Y31000D01*
X144000Y8000D02*
Y16373D01*
X133626Y6000D02*
X142000D01*
X144000Y8000D01*
X129811Y9815D02*
X133626Y6000D01*
X129811Y9815D02*
Y11095D01*
X111000Y21287D02*
X118000D01*
X119826Y54399D02*
X122225Y52000D01*
X126000D01*
X130098Y47902D01*
X121794Y57205D02*
X124000Y55000D01*
Y34000D02*
Y49000D01*
X121794Y57205D02*
Y62365D01*
X119826Y54399D02*
Y62365D01*
X139189Y92721D02*
Y94000D01*
X138000Y106000D02*
X145000Y99000D01*
X128000Y106000D02*
X138000D01*
X139000Y58000D02*
Y63811D01*
X139189Y64000D01*
X30279Y83811D02*
X45091Y69000D01*
X88777D01*
X103000Y103998D02*
X103001Y103999D01*
X102585Y103584D02*
X103000Y103998D01*
X85001Y95000D02*
X85039Y95038D01*
X7000Y143000D02*
X15528D01*
X91261Y65261D02*
Y66428D01*
X94883Y70050D01*
X91000Y65000D02*
X91261Y65261D01*
X131539Y79984D02*
X159984D01*
X168000Y88000D01*
X131539Y78015D02*
X131546Y78008D01*
X167992D02*
X168000Y78000D01*
X131546Y78008D02*
X167992D01*
X162000Y32000D02*
Y68000D01*
Y32000D02*
X168000Y26000D01*
X76000Y74000D02*
X81984Y79984D01*
X73190Y73999D02*
X73190Y74000D01*
X76000D01*
X7000Y123000D02*
X13000Y129000D01*
X131521Y85872D02*
X131539Y85889D01*
X124935Y85872D02*
X131521D01*
X124917Y85855D02*
X124935Y85872D01*
X93917Y89826D02*
X98271D01*
X88743Y95000D02*
X93917Y89826D01*
X85001Y95000D02*
X88743D01*
X124000Y34000D02*
X124772Y34772D01*
X129079D01*
X118000Y33098D02*
X123098D01*
X124000Y34000D01*
X157890Y72110D02*
X162000Y68000D01*
X131539Y72110D02*
X157890D01*
X169992Y78008D02*
X170000Y78000D01*
X58000Y13000D02*
Y37000D01*
X74043Y53043D01*
X60000Y14000D02*
X67000Y7000D01*
X60000Y14000D02*
Y36000D01*
X75256Y51256D01*
X58000Y13000D02*
X68634Y2366D01*
X98271Y56314D02*
Y68173D01*
X95000Y53043D02*
X98271Y56314D01*
X74043Y53043D02*
X95000D01*
X75256Y51256D02*
X97256D01*
X79366Y2366D02*
X84000Y7000D01*
X68634Y2366D02*
X79366D01*
X104000Y62287D02*
X104078Y62365D01*
X104000Y58000D02*
Y62287D01*
X97256Y51256D02*
X104000Y58000D01*
X77630Y45124D02*
X81975Y49468D01*
X98020D01*
X67000Y7000D02*
X74000D01*
X98180Y70050D02*
X98271Y70141D01*
X94883Y70050D02*
X98180D01*
X88777Y69000D02*
X91000Y71223D01*
Y76000D01*
X88179Y65874D02*
X92787Y70482D01*
X86765Y65874D02*
X88179D01*
X85000Y64109D02*
X86765Y65874D01*
X92787Y70482D02*
Y71891D01*
X94883Y73988D01*
X34791Y50209D02*
Y59339D01*
Y50209D02*
X35000Y50000D01*
X34583Y59548D02*
X34791Y59339D01*
X25921Y59548D02*
X25961Y59509D01*
Y50039D02*
Y59509D01*
Y50039D02*
X26000Y50000D01*
X17000D02*
X17130Y50130D01*
Y59418D01*
X95000Y41000D02*
X109984Y55984D01*
Y62365D01*
X95380Y44000D02*
X108000Y56620D01*
X98020Y49468D02*
X106000Y57449D01*
Y60000D01*
X108000Y56620D02*
Y62350D01*
X17130Y59418D02*
X17260Y59548D01*
X82551Y38271D02*
X92270D01*
X95000Y41000D01*
X88000Y44000D02*
X95380D01*
X82559D02*
X88000D01*
Y41000D02*
Y44000D01*
X105000Y47000D02*
X112000Y54000D01*
Y62317D01*
X111952Y62365D02*
X112000Y62317D01*
X80189Y45124D02*
X82065Y47000D01*
X88000D01*
X77441Y44000D02*
X77630Y44189D01*
X80000Y44000D02*
X80189Y44189D01*
Y45124D01*
X77630Y44189D02*
Y45124D01*
X94883Y73988D02*
X98180D01*
X91000Y76000D02*
X93015Y78015D01*
X98180Y73988D02*
X98271Y74078D01*
X84000Y30917D02*
Y34000D01*
Y30917D02*
X84096Y30822D01*
X83000Y35000D02*
X84000Y34000D01*
X80000Y36586D02*
X81586Y35000D01*
X80000Y36586D02*
Y38263D01*
X81586Y35000D02*
X83000D01*
X79992Y38271D02*
X80000Y38263D01*
X74000Y30811D02*
Y35000D01*
X74874Y35874D01*
Y38271D01*
X55918Y75246D02*
X59307Y71857D01*
X55524Y75246D02*
X55918D01*
X59307Y71857D02*
X67629D01*
X69771Y73999D01*
X73190D01*
X81984Y79984D02*
X98271D01*
X93015Y78015D02*
X98271D01*
X67666Y80000D02*
X76000D01*
X81001Y85001D02*
X85001D01*
X76000Y80000D02*
X81001Y85001D01*
X64519Y82754D02*
X64912D01*
X67666Y80000D01*
X29000Y83811D02*
X30279D01*
X7000Y113000D02*
X7354D01*
X19567Y100787D01*
Y99410D02*
Y100787D01*
Y75000D02*
Y76378D01*
X25236Y82047D01*
X27236D01*
X29000Y83811D01*
Y91189D01*
X19567Y98032D02*
X24941Y92658D01*
X19567Y98032D02*
Y99410D01*
X24941Y92658D02*
X27531D01*
X29000Y91189D01*
X131000Y64000D02*
X139189D01*
X129365Y62365D02*
X131000Y64000D01*
X125732Y62365D02*
X129365D01*
X104085Y95640D02*
Y99915D01*
X103000Y101000D02*
X104085Y99915D01*
X104078Y95633D02*
X104085Y95640D01*
X113000Y103953D02*
X113028Y103981D01*
X113000Y101000D02*
Y103953D01*
X111952Y99952D02*
X113000Y101000D01*
X111952Y95633D02*
Y99952D01*
X131539Y89826D02*
X136294D01*
X138999Y11094D02*
Y12373D01*
X135821Y15551D02*
X138999Y12373D01*
X135775Y15551D02*
X135821D01*
X134984Y16343D02*
X135775Y15551D01*
X134984Y16343D02*
Y19417D01*
X108000Y62350D02*
X108015Y62365D01*
D15*
X73000Y146685D02*
D03*
Y157000D02*
D03*
D03*
D16*
X84047Y136000D02*
D03*
X102000D02*
D03*
X115000D02*
D03*
X132953D02*
D03*
D17*
X93024Y162575D02*
D03*
X123976D02*
D03*
D18*
X132999Y115190D02*
D03*
Y127001D02*
D03*
X103001Y115810D02*
D03*
Y103999D02*
D03*
X150001Y21094D02*
D03*
Y32905D02*
D03*
X74000Y19000D02*
D03*
Y30811D02*
D03*
X29000Y72000D02*
D03*
Y83811D02*
D03*
X84096Y19011D02*
D03*
Y30822D02*
D03*
D19*
X88685Y126000D02*
D03*
X99000D02*
D03*
D03*
D20*
X124000Y125000D02*
D03*
X112189D02*
D03*
X85001Y73999D02*
D03*
X73190D02*
D03*
Y64001D02*
D03*
X85001D02*
D03*
X73190Y95000D02*
D03*
X85001D02*
D03*
X73190Y85001D02*
D03*
X85001D02*
D03*
X151000Y94000D02*
D03*
X139189D02*
D03*
X151000Y64000D02*
D03*
X139189D02*
D03*
X129811Y11095D02*
D03*
X118000D02*
D03*
X138999Y11094D02*
D03*
X150810D02*
D03*
X137999Y42999D02*
D03*
X149810D02*
D03*
D21*
X113028Y115792D02*
D03*
Y103981D02*
D03*
X118000Y33098D02*
D03*
Y21287D02*
D03*
X29000Y103000D02*
D03*
Y91189D02*
D03*
X19000Y110287D02*
D03*
Y122098D02*
D03*
D22*
X104078Y95633D02*
D03*
X106046D02*
D03*
X108015D02*
D03*
X109984D02*
D03*
X111952D02*
D03*
X113920D02*
D03*
X115889D02*
D03*
X117858D02*
D03*
X119826D02*
D03*
X121794D02*
D03*
X123763D02*
D03*
X125732D02*
D03*
Y62365D02*
D03*
X123763D02*
D03*
X121794D02*
D03*
X119826D02*
D03*
X117858D02*
D03*
X115889D02*
D03*
X113920D02*
D03*
X111952D02*
D03*
X109984D02*
D03*
X108015D02*
D03*
X106046D02*
D03*
X104078D02*
D03*
D23*
X131539Y89826D02*
D03*
Y87858D02*
D03*
Y85889D02*
D03*
Y83921D02*
D03*
Y81952D02*
D03*
Y79984D02*
D03*
Y78015D02*
D03*
Y76047D02*
D03*
Y74078D02*
D03*
Y72110D02*
D03*
Y70141D02*
D03*
Y68173D02*
D03*
X98271D02*
D03*
Y70141D02*
D03*
Y72110D02*
D03*
Y74078D02*
D03*
Y76047D02*
D03*
Y78015D02*
D03*
Y79984D02*
D03*
Y81952D02*
D03*
Y83921D02*
D03*
Y85889D02*
D03*
Y87858D02*
D03*
Y89826D02*
D03*
D24*
X64536Y75310D02*
D03*
X55524Y75246D02*
D03*
X64519Y82754D02*
D03*
X55463D02*
D03*
D25*
X134000Y27095D02*
D03*
D26*
X129079Y34772D02*
D03*
X131047D02*
D03*
X133016D02*
D03*
X134984D02*
D03*
X136953D02*
D03*
X138921D02*
D03*
Y19417D02*
D03*
X136953D02*
D03*
X134984D02*
D03*
X133016D02*
D03*
X131047D02*
D03*
X129079D02*
D03*
D27*
X141677Y32016D02*
D03*
Y30047D02*
D03*
Y28079D02*
D03*
Y26110D02*
D03*
Y24142D02*
D03*
Y22173D02*
D03*
X126323D02*
D03*
Y24142D02*
D03*
Y26110D02*
D03*
Y28079D02*
D03*
Y30047D02*
D03*
Y32016D02*
D03*
D28*
X130098Y43000D02*
D03*
X118287D02*
D03*
D29*
X74874Y38271D02*
D03*
X77433D02*
D03*
X79992D02*
D03*
X82551D02*
D03*
X82559Y44000D02*
D03*
X80000D02*
D03*
X77441D02*
D03*
X74874Y43979D02*
D03*
D30*
X19567Y75000D02*
D03*
Y99410D02*
D03*
X5000D02*
D03*
Y75000D02*
D03*
D31*
X43244Y59548D02*
D03*
X38913D02*
D03*
X34583D02*
D03*
X30252D02*
D03*
X25921D02*
D03*
X21590D02*
D03*
X17260D02*
D03*
X12929D02*
D03*
X8598D02*
D03*
D32*
X3874Y57186D02*
D03*
D33*
Y19784D02*
D03*
X64898Y19784D02*
D03*
D34*
X61354Y57580D02*
D03*
D59*
X16343Y162343D02*
X68779D01*
X73000Y158122D01*
X7000Y153000D02*
X16343Y162343D01*
X73000Y157000D02*
Y158122D01*
X77453Y162575D02*
X93024D01*
X73000Y158122D02*
X77453Y162575D01*
X108000Y3000D02*
X155864D01*
X104000Y7000D02*
X108000Y3000D01*
X155864D02*
X159732Y6868D01*
Y12425D01*
X164575Y17268D01*
X169301D01*
X174000Y21966D01*
Y36000D01*
Y117000D01*
X168000Y36000D02*
X174000D01*
X161000Y130000D02*
X174000Y117000D01*
X156722Y127001D02*
X159722Y130000D01*
X132999Y127001D02*
X156722D01*
X159722Y130000D02*
X161000D01*
X132953Y136000D02*
X132976Y135977D01*
Y127024D02*
Y135977D01*
Y127024D02*
X132999Y127001D01*
X126000Y137000D02*
Y140000D01*
X115969Y126969D02*
X126000Y137000D01*
X112878Y126969D02*
X115969D01*
X126000Y140000D02*
X131000Y145000D01*
X112189Y125000D02*
Y126279D01*
X112878Y126969D01*
X131000Y145000D02*
X140000D01*
X161000Y166000D01*
D60*
X111000Y41000D02*
X113000Y43000D01*
X101000Y31000D02*
X111000Y41000D01*
X84274Y31000D02*
X101000D01*
X113000Y17000D02*
X125185D01*
X111000Y19000D02*
X113000Y17000D01*
X111000Y19000D02*
Y21287D01*
Y41000D01*
X125185Y17000D02*
X129811Y12374D01*
X113000Y43000D02*
X118287D01*
D61*
X74000Y7000D02*
D03*
X94000D02*
D03*
X84000D02*
D03*
X7000Y113000D02*
D03*
Y123000D02*
D03*
Y143000D02*
D03*
Y133000D02*
D03*
X168000Y88000D02*
D03*
Y68000D02*
D03*
Y78000D02*
D03*
Y46000D02*
D03*
Y36000D02*
D03*
X57000Y152000D02*
D03*
X27079D02*
D03*
D62*
X104000Y7000D02*
D03*
D63*
X7000Y153000D02*
D03*
X168000Y58000D02*
D03*
Y26000D02*
D03*
D64*
X161000Y166000D02*
D03*
Y152220D02*
D03*
Y130000D02*
D03*
Y116220D02*
D03*
D65*
X174436Y15683D02*
D03*
X104515Y15127D02*
D03*
X96377D02*
D03*
X116735Y50696D02*
D03*
X118211Y27077D02*
D03*
X15551Y135870D02*
D03*
X78993Y56958D02*
D03*
X91244Y87291D02*
D03*
X94812Y61195D02*
D03*
X92157Y96543D02*
D03*
X131888Y98442D02*
D03*
X153543Y74803D02*
D03*
X79749Y73928D02*
D03*
X142066Y18832D02*
D03*
X91695Y135943D02*
D03*
X78740Y118110D02*
D03*
X86614D02*
D03*
X94488D02*
D03*
X169291Y145669D02*
D03*
Y137795D02*
D03*
X149606D02*
D03*
X141732D02*
D03*
Y157480D02*
D03*
Y169291D02*
D03*
X110236Y157480D02*
D03*
Y169291D02*
D03*
X74803D02*
D03*
X62992D02*
D03*
X51181D02*
D03*
X39370D02*
D03*
X27559D02*
D03*
X43307Y149606D02*
D03*
X66929Y125984D02*
D03*
X55118D02*
D03*
X66929Y137795D02*
D03*
X55118D02*
D03*
X43307D02*
D03*
X162279Y97531D02*
D03*
Y105118D02*
D03*
X146765Y107916D02*
D03*
Y114995D02*
D03*
Y121056D02*
D03*
X158465Y85264D02*
D03*
X150928D02*
D03*
X22702Y116352D02*
D03*
X15594D02*
D03*
X15748Y90551D02*
D03*
Y82677D02*
D03*
X7874D02*
D03*
Y90551D02*
D03*
X15748Y27559D02*
D03*
X23622D02*
D03*
X31496D02*
D03*
X39370D02*
D03*
X47244D02*
D03*
Y35433D02*
D03*
X39370D02*
D03*
X31496D02*
D03*
X23622D02*
D03*
X15748D02*
D03*
X156933Y18271D02*
D03*
Y33005D02*
D03*
Y43045D02*
D03*
X149972Y26754D02*
D03*
X102672Y40982D02*
D03*
X111285Y11196D02*
D03*
X104515Y22193D02*
D03*
X96377D02*
D03*
X84460Y24946D02*
D03*
X73877Y24839D02*
D03*
X66929Y35433D02*
D03*
X71230Y41293D02*
D03*
X116839Y69062D02*
D03*
X124103Y76284D02*
D03*
X116882Y88178D02*
D03*
X108131Y71611D02*
D03*
X78740Y90551D02*
D03*
X66929D02*
D03*
X51181Y98425D02*
D03*
X39370D02*
D03*
X39160Y88739D02*
D03*
X49840D02*
D03*
X49894Y75185D02*
D03*
D66*
X139244Y87247D02*
D03*
X41000Y50000D02*
D03*
X67000Y31000D02*
D03*
X113000Y43000D02*
D03*
X124000Y55000D02*
D03*
Y49000D02*
D03*
X139000Y58000D02*
D03*
X85000Y57000D02*
D03*
X91000Y65000D02*
D03*
X122000Y104000D02*
D03*
X124917Y85855D02*
D03*
X35000Y50000D02*
D03*
X26000D02*
D03*
X17000D02*
D03*
X95000Y41000D02*
D03*
X88000D02*
D03*
X105000Y47000D02*
D03*
X88000D02*
D03*
D67*
X85039Y103584D02*
D03*
X37000Y70000D02*
D03*
X27000Y122000D02*
D03*
M02*
