G04*
G04 #@! TF.GenerationSoftware,Altium Limited,Altium Designer,22.1.2 (22)*
G04*
G04 Layer_Color=2752767*
%FSLAX25Y25*%
%MOIN*%
G70*
G04*
G04 #@! TF.SameCoordinates,916DC4FC-BA67-46E0-AC62-78C5DE96CB0C*
G04*
G04*
G04 #@! TF.FilePolarity,Positive*
G04*
G01*
G75*
%ADD68C,0.00200*%
%ADD69C,0.00267*%
D68*
X73200Y6200D02*
Y7800D01*
X74800D01*
Y6200D01*
X73200D01*
X103200D02*
Y7800D01*
X104800D01*
Y6200D01*
X103200D01*
X93200D02*
Y7800D01*
X94800D01*
Y6200D01*
X93200D01*
X83200D02*
Y7800D01*
X84800D01*
Y6200D01*
X83200D01*
X6200Y112200D02*
Y113800D01*
X7800D01*
Y112200D01*
X6200D01*
Y122200D02*
Y123800D01*
X7800D01*
Y122200D01*
X6200D01*
Y152200D02*
Y153800D01*
X7800D01*
Y152200D01*
X6200D01*
Y142200D02*
Y143800D01*
X7800D01*
Y142200D01*
X6200D01*
Y132200D02*
Y133800D01*
X7800D01*
Y132200D01*
X6200D01*
X167200Y87200D02*
Y88800D01*
X168800D01*
Y87200D01*
X167200D01*
Y57200D02*
Y58800D01*
X168800D01*
Y57200D01*
X167200D01*
Y67200D02*
Y68800D01*
X168800D01*
Y67200D01*
X167200D01*
Y77200D02*
Y78800D01*
X168800D01*
Y77200D01*
X167200D01*
Y45200D02*
Y46800D01*
X168800D01*
Y45200D01*
X167200D01*
Y35200D02*
Y36800D01*
X168800D01*
Y35200D01*
X167200D01*
Y25200D02*
Y26800D01*
X168800D01*
Y25200D01*
X167200D01*
X56200Y151200D02*
Y152800D01*
X57800D01*
Y151200D01*
X56200D01*
X26279D02*
Y152800D01*
X27879D01*
Y151200D01*
X26279D01*
X14898Y17410D02*
X14098Y19010D01*
X15698D01*
X14898Y17410D01*
X46394D02*
X45594Y19010D01*
X47194D01*
X46394Y17410D01*
X161000Y165200D02*
X161400Y165600D01*
X161800D01*
X161400Y166000D01*
X161800Y166400D01*
X161400D01*
X161000Y166800D01*
X160600Y166400D01*
X160200D01*
X160600Y166000D01*
X160200Y165600D01*
X160600D01*
X161000Y165200D01*
Y151420D02*
X161400Y151821D01*
X161800D01*
X161400Y152220D01*
X161800Y152620D01*
X161400D01*
X161000Y153021D01*
X160600Y152620D01*
X160200D01*
X160600Y152220D01*
X160200Y151821D01*
X160600D01*
X161000Y151420D01*
Y129200D02*
X161400Y129600D01*
X161800D01*
X161400Y130000D01*
X161800Y130400D01*
X161400D01*
X161000Y130800D01*
X160600Y130400D01*
X160200D01*
X160600Y130000D01*
X160200Y129600D01*
X160600D01*
X161000Y129200D01*
Y115420D02*
X161400Y115821D01*
X161800D01*
X161400Y116220D01*
X161800Y116621D01*
X161400D01*
X161000Y117020D01*
X160600Y116621D01*
X160200D01*
X160600Y116220D01*
X160200Y115821D01*
X160600D01*
X161000Y115420D01*
X173636Y14883D02*
X174036Y15683D01*
X173636Y16483D01*
X174436Y16083D01*
X175236Y16483D01*
X174836Y15683D01*
X175236Y14883D01*
X174436Y15283D01*
X173636Y14883D01*
X103715Y14327D02*
X104115Y15127D01*
X103715Y15927D01*
X104515Y15527D01*
X105315Y15927D01*
X104915Y15127D01*
X105315Y14327D01*
X104515Y14727D01*
X103715Y14327D01*
X95577D02*
X95977Y15127D01*
X95577Y15927D01*
X96377Y15527D01*
X97177Y15927D01*
X96777Y15127D01*
X97177Y14327D01*
X96377Y14727D01*
X95577Y14327D01*
X115935Y49896D02*
X116335Y50696D01*
X115935Y51496D01*
X116735Y51096D01*
X117535Y51496D01*
X117135Y50696D01*
X117535Y49896D01*
X116735Y50296D01*
X115935Y49896D01*
X117411Y26277D02*
X117812Y27077D01*
X117411Y27877D01*
X118211Y27477D01*
X119011Y27877D01*
X118612Y27077D01*
X119011Y26277D01*
X118211Y26677D01*
X117411Y26277D01*
X14751Y135070D02*
X15151Y135870D01*
X14751Y136670D01*
X15551Y136270D01*
X16351Y136670D01*
X15951Y135870D01*
X16351Y135070D01*
X15551Y135470D01*
X14751Y135070D01*
X78193Y56158D02*
X78593Y56958D01*
X78193Y57758D01*
X78993Y57358D01*
X79793Y57758D01*
X79393Y56958D01*
X79793Y56158D01*
X78993Y56558D01*
X78193Y56158D01*
X90444Y86491D02*
X90844Y87291D01*
X90444Y88091D01*
X91244Y87691D01*
X92044Y88091D01*
X91644Y87291D01*
X92044Y86491D01*
X91244Y86891D01*
X90444Y86491D01*
X94012Y60395D02*
X94412Y61195D01*
X94012Y61995D01*
X94812Y61595D01*
X95612Y61995D01*
X95212Y61195D01*
X95612Y60395D01*
X94812Y60795D01*
X94012Y60395D01*
X91357Y95743D02*
X91757Y96543D01*
X91357Y97343D01*
X92157Y96943D01*
X92957Y97343D01*
X92557Y96543D01*
X92957Y95743D01*
X92157Y96143D01*
X91357Y95743D01*
X131088Y97642D02*
X131489Y98442D01*
X131088Y99242D01*
X131888Y98842D01*
X132688Y99242D01*
X132289Y98442D01*
X132688Y97642D01*
X131888Y98042D01*
X131088Y97642D01*
X152743Y74003D02*
X153143Y74803D01*
X152743Y75603D01*
X153543Y75203D01*
X154343Y75603D01*
X153943Y74803D01*
X154343Y74003D01*
X153543Y74403D01*
X152743Y74003D01*
X138844Y86847D02*
Y86446D01*
X139644D01*
Y86847D01*
X140044D01*
Y87647D01*
X139644D01*
Y88046D01*
X138844D01*
Y87647D01*
X138444D01*
Y86847D01*
X138844D01*
X78949Y73128D02*
X79349Y73928D01*
X78949Y74728D01*
X79749Y74328D01*
X80549Y74728D01*
X80149Y73928D01*
X80549Y73128D01*
X79749Y73528D01*
X78949Y73128D01*
X141266Y18032D02*
X141666Y18832D01*
X141266Y19632D01*
X142066Y19232D01*
X142866Y19632D01*
X142466Y18832D01*
X142866Y18032D01*
X142066Y18432D01*
X141266Y18032D01*
X90895Y135143D02*
X91295Y135943D01*
X90895Y136743D01*
X91695Y136343D01*
X92495Y136743D01*
X92095Y135943D01*
X92495Y135143D01*
X91695Y135543D01*
X90895Y135143D01*
X77940Y117310D02*
X78340Y118110D01*
X77940Y118910D01*
X78740Y118510D01*
X79540Y118910D01*
X79140Y118110D01*
X79540Y117310D01*
X78740Y117710D01*
X77940Y117310D01*
X85814D02*
X86214Y118110D01*
X85814Y118910D01*
X86614Y118510D01*
X87414Y118910D01*
X87014Y118110D01*
X87414Y117310D01*
X86614Y117710D01*
X85814Y117310D01*
X93688D02*
X94088Y118110D01*
X93688Y118910D01*
X94488Y118510D01*
X95288Y118910D01*
X94888Y118110D01*
X95288Y117310D01*
X94488Y117710D01*
X93688Y117310D01*
X168491Y144869D02*
X168891Y145669D01*
X168491Y146469D01*
X169291Y146069D01*
X170091Y146469D01*
X169691Y145669D01*
X170091Y144869D01*
X169291Y145269D01*
X168491Y144869D01*
Y136995D02*
X168891Y137795D01*
X168491Y138595D01*
X169291Y138195D01*
X170091Y138595D01*
X169691Y137795D01*
X170091Y136995D01*
X169291Y137395D01*
X168491Y136995D01*
X148806D02*
X149206Y137795D01*
X148806Y138595D01*
X149606Y138195D01*
X150406Y138595D01*
X150006Y137795D01*
X150406Y136995D01*
X149606Y137395D01*
X148806Y136995D01*
X140932D02*
X141332Y137795D01*
X140932Y138595D01*
X141732Y138195D01*
X142532Y138595D01*
X142132Y137795D01*
X142532Y136995D01*
X141732Y137395D01*
X140932Y136995D01*
Y156680D02*
X141332Y157480D01*
X140932Y158280D01*
X141732Y157880D01*
X142532Y158280D01*
X142132Y157480D01*
X142532Y156680D01*
X141732Y157080D01*
X140932Y156680D01*
Y168491D02*
X141332Y169291D01*
X140932Y170091D01*
X141732Y169691D01*
X142532Y170091D01*
X142132Y169291D01*
X142532Y168491D01*
X141732Y168891D01*
X140932Y168491D01*
X109436Y156680D02*
X109836Y157480D01*
X109436Y158280D01*
X110236Y157880D01*
X111036Y158280D01*
X110636Y157480D01*
X111036Y156680D01*
X110236Y157080D01*
X109436Y156680D01*
Y168491D02*
X109836Y169291D01*
X109436Y170091D01*
X110236Y169691D01*
X111036Y170091D01*
X110636Y169291D01*
X111036Y168491D01*
X110236Y168891D01*
X109436Y168491D01*
X74003D02*
X74403Y169291D01*
X74003Y170091D01*
X74803Y169691D01*
X75603Y170091D01*
X75203Y169291D01*
X75603Y168491D01*
X74803Y168891D01*
X74003Y168491D01*
X62192D02*
X62592Y169291D01*
X62192Y170091D01*
X62992Y169691D01*
X63792Y170091D01*
X63392Y169291D01*
X63792Y168491D01*
X62992Y168891D01*
X62192Y168491D01*
X50381D02*
X50781Y169291D01*
X50381Y170091D01*
X51181Y169691D01*
X51981Y170091D01*
X51581Y169291D01*
X51981Y168491D01*
X51181Y168891D01*
X50381Y168491D01*
X38570D02*
X38970Y169291D01*
X38570Y170091D01*
X39370Y169691D01*
X40170Y170091D01*
X39770Y169291D01*
X40170Y168491D01*
X39370Y168891D01*
X38570Y168491D01*
X26759D02*
X27159Y169291D01*
X26759Y170091D01*
X27559Y169691D01*
X28359Y170091D01*
X27959Y169291D01*
X28359Y168491D01*
X27559Y168891D01*
X26759Y168491D01*
X42507Y148806D02*
X42907Y149606D01*
X42507Y150406D01*
X43307Y150006D01*
X44107Y150406D01*
X43707Y149606D01*
X44107Y148806D01*
X43307Y149206D01*
X42507Y148806D01*
X66129Y125184D02*
X66529Y125984D01*
X66129Y126784D01*
X66929Y126384D01*
X67729Y126784D01*
X67329Y125984D01*
X67729Y125184D01*
X66929Y125584D01*
X66129Y125184D01*
X54318D02*
X54718Y125984D01*
X54318Y126784D01*
X55118Y126384D01*
X55918Y126784D01*
X55518Y125984D01*
X55918Y125184D01*
X55118Y125584D01*
X54318Y125184D01*
X66129Y136995D02*
X66529Y137795D01*
X66129Y138595D01*
X66929Y138195D01*
X67729Y138595D01*
X67329Y137795D01*
X67729Y136995D01*
X66929Y137395D01*
X66129Y136995D01*
X54318D02*
X54718Y137795D01*
X54318Y138595D01*
X55118Y138195D01*
X55918Y138595D01*
X55518Y137795D01*
X55918Y136995D01*
X55118Y137395D01*
X54318Y136995D01*
X42507D02*
X42907Y137795D01*
X42507Y138595D01*
X43307Y138195D01*
X44107Y138595D01*
X43707Y137795D01*
X44107Y136995D01*
X43307Y137395D01*
X42507Y136995D01*
X161479Y96731D02*
X161879Y97531D01*
X161479Y98331D01*
X162279Y97931D01*
X163079Y98331D01*
X162679Y97531D01*
X163079Y96731D01*
X162279Y97131D01*
X161479Y96731D01*
Y104318D02*
X161879Y105118D01*
X161479Y105918D01*
X162279Y105518D01*
X163079Y105918D01*
X162679Y105118D01*
X163079Y104318D01*
X162279Y104718D01*
X161479Y104318D01*
X145965Y107116D02*
X146365Y107916D01*
X145965Y108716D01*
X146765Y108316D01*
X147565Y108716D01*
X147165Y107916D01*
X147565Y107116D01*
X146765Y107516D01*
X145965Y107116D01*
Y114195D02*
X146365Y114995D01*
X145965Y115795D01*
X146765Y115395D01*
X147565Y115795D01*
X147165Y114995D01*
X147565Y114195D01*
X146765Y114595D01*
X145965Y114195D01*
Y120256D02*
X146365Y121056D01*
X145965Y121856D01*
X146765Y121456D01*
X147565Y121856D01*
X147165Y121056D01*
X147565Y120256D01*
X146765Y120656D01*
X145965Y120256D01*
X157665Y84464D02*
X158064Y85264D01*
X157665Y86064D01*
X158465Y85664D01*
X159265Y86064D01*
X158864Y85264D01*
X159265Y84464D01*
X158465Y84864D01*
X157665Y84464D01*
X150128D02*
X150528Y85264D01*
X150128Y86064D01*
X150928Y85664D01*
X151728Y86064D01*
X151328Y85264D01*
X151728Y84464D01*
X150928Y84864D01*
X150128Y84464D01*
X21902Y115552D02*
X22302Y116352D01*
X21902Y117152D01*
X22702Y116752D01*
X23502Y117152D01*
X23102Y116352D01*
X23502Y115552D01*
X22702Y115952D01*
X21902Y115552D01*
X14794D02*
X15194Y116352D01*
X14794Y117152D01*
X15594Y116752D01*
X16394Y117152D01*
X15994Y116352D01*
X16394Y115552D01*
X15594Y115952D01*
X14794Y115552D01*
X14948Y89751D02*
X15348Y90551D01*
X14948Y91351D01*
X15748Y90951D01*
X16548Y91351D01*
X16148Y90551D01*
X16548Y89751D01*
X15748Y90151D01*
X14948Y89751D01*
Y81877D02*
X15348Y82677D01*
X14948Y83477D01*
X15748Y83077D01*
X16548Y83477D01*
X16148Y82677D01*
X16548Y81877D01*
X15748Y82277D01*
X14948Y81877D01*
X7074D02*
X7474Y82677D01*
X7074Y83477D01*
X7874Y83077D01*
X8674Y83477D01*
X8274Y82677D01*
X8674Y81877D01*
X7874Y82277D01*
X7074Y81877D01*
Y89751D02*
X7474Y90551D01*
X7074Y91351D01*
X7874Y90951D01*
X8674Y91351D01*
X8274Y90551D01*
X8674Y89751D01*
X7874Y90151D01*
X7074Y89751D01*
X14948Y26759D02*
X15348Y27559D01*
X14948Y28359D01*
X15748Y27959D01*
X16548Y28359D01*
X16148Y27559D01*
X16548Y26759D01*
X15748Y27159D01*
X14948Y26759D01*
X22822D02*
X23222Y27559D01*
X22822Y28359D01*
X23622Y27959D01*
X24422Y28359D01*
X24022Y27559D01*
X24422Y26759D01*
X23622Y27159D01*
X22822Y26759D01*
X30696D02*
X31096Y27559D01*
X30696Y28359D01*
X31496Y27959D01*
X32296Y28359D01*
X31896Y27559D01*
X32296Y26759D01*
X31496Y27159D01*
X30696Y26759D01*
X38570D02*
X38970Y27559D01*
X38570Y28359D01*
X39370Y27959D01*
X40170Y28359D01*
X39770Y27559D01*
X40170Y26759D01*
X39370Y27159D01*
X38570Y26759D01*
X46444D02*
X46844Y27559D01*
X46444Y28359D01*
X47244Y27959D01*
X48044Y28359D01*
X47644Y27559D01*
X48044Y26759D01*
X47244Y27159D01*
X46444Y26759D01*
Y34633D02*
X46844Y35433D01*
X46444Y36233D01*
X47244Y35833D01*
X48044Y36233D01*
X47644Y35433D01*
X48044Y34633D01*
X47244Y35033D01*
X46444Y34633D01*
X38570D02*
X38970Y35433D01*
X38570Y36233D01*
X39370Y35833D01*
X40170Y36233D01*
X39770Y35433D01*
X40170Y34633D01*
X39370Y35033D01*
X38570Y34633D01*
X30696D02*
X31096Y35433D01*
X30696Y36233D01*
X31496Y35833D01*
X32296Y36233D01*
X31896Y35433D01*
X32296Y34633D01*
X31496Y35033D01*
X30696Y34633D01*
X22822D02*
X23222Y35433D01*
X22822Y36233D01*
X23622Y35833D01*
X24422Y36233D01*
X24022Y35433D01*
X24422Y34633D01*
X23622Y35033D01*
X22822Y34633D01*
X14948D02*
X15348Y35433D01*
X14948Y36233D01*
X15748Y35833D01*
X16548Y36233D01*
X16148Y35433D01*
X16548Y34633D01*
X15748Y35033D01*
X14948Y34633D01*
X156133Y17471D02*
X156533Y18271D01*
X156133Y19071D01*
X156933Y18671D01*
X157733Y19071D01*
X157333Y18271D01*
X157733Y17471D01*
X156933Y17871D01*
X156133Y17471D01*
Y32205D02*
X156533Y33005D01*
X156133Y33805D01*
X156933Y33405D01*
X157733Y33805D01*
X157333Y33005D01*
X157733Y32205D01*
X156933Y32605D01*
X156133Y32205D01*
Y42245D02*
X156533Y43045D01*
X156133Y43845D01*
X156933Y43445D01*
X157733Y43845D01*
X157333Y43045D01*
X157733Y42245D01*
X156933Y42645D01*
X156133Y42245D01*
X149172Y25954D02*
X149572Y26754D01*
X149172Y27554D01*
X149972Y27154D01*
X150772Y27554D01*
X150372Y26754D01*
X150772Y25954D01*
X149972Y26354D01*
X149172Y25954D01*
X101872Y40181D02*
X102271Y40982D01*
X101872Y41781D01*
X102672Y41381D01*
X103472Y41781D01*
X103071Y40982D01*
X103472Y40181D01*
X102672Y40582D01*
X101872Y40181D01*
X110485Y10396D02*
X110885Y11196D01*
X110485Y11996D01*
X111285Y11596D01*
X112085Y11996D01*
X111685Y11196D01*
X112085Y10396D01*
X111285Y10796D01*
X110485Y10396D01*
X103715Y21393D02*
X104115Y22193D01*
X103715Y22993D01*
X104515Y22593D01*
X105315Y22993D01*
X104915Y22193D01*
X105315Y21393D01*
X104515Y21793D01*
X103715Y21393D01*
X95577D02*
X95977Y22193D01*
X95577Y22993D01*
X96377Y22593D01*
X97177Y22993D01*
X96777Y22193D01*
X97177Y21393D01*
X96377Y21793D01*
X95577Y21393D01*
X83660Y24146D02*
X84060Y24946D01*
X83660Y25746D01*
X84460Y25346D01*
X85260Y25746D01*
X84860Y24946D01*
X85260Y24146D01*
X84460Y24546D01*
X83660Y24146D01*
X73077Y24039D02*
X73477Y24839D01*
X73077Y25639D01*
X73877Y25239D01*
X74677Y25639D01*
X74277Y24839D01*
X74677Y24039D01*
X73877Y24439D01*
X73077Y24039D01*
X66129Y34633D02*
X66529Y35433D01*
X66129Y36233D01*
X66929Y35833D01*
X67729Y36233D01*
X67329Y35433D01*
X67729Y34633D01*
X66929Y35033D01*
X66129Y34633D01*
X70430Y40493D02*
X70830Y41293D01*
X70430Y42093D01*
X71230Y41693D01*
X72030Y42093D01*
X71630Y41293D01*
X72030Y40493D01*
X71230Y40893D01*
X70430Y40493D01*
X116039Y68262D02*
X116439Y69062D01*
X116039Y69862D01*
X116839Y69462D01*
X117639Y69862D01*
X117239Y69062D01*
X117639Y68262D01*
X116839Y68662D01*
X116039Y68262D01*
X123303Y75484D02*
X123703Y76284D01*
X123303Y77084D01*
X124103Y76684D01*
X124903Y77084D01*
X124503Y76284D01*
X124903Y75484D01*
X124103Y75884D01*
X123303Y75484D01*
X116082Y87378D02*
X116481Y88178D01*
X116082Y88978D01*
X116882Y88578D01*
X117682Y88978D01*
X117281Y88178D01*
X117682Y87378D01*
X116882Y87778D01*
X116082Y87378D01*
X107331Y70811D02*
X107731Y71611D01*
X107331Y72411D01*
X108131Y72011D01*
X108931Y72411D01*
X108531Y71611D01*
X108931Y70811D01*
X108131Y71211D01*
X107331Y70811D01*
X77940Y89751D02*
X78340Y90551D01*
X77940Y91351D01*
X78740Y90951D01*
X79540Y91351D01*
X79140Y90551D01*
X79540Y89751D01*
X78740Y90151D01*
X77940Y89751D01*
X66129D02*
X66529Y90551D01*
X66129Y91351D01*
X66929Y90951D01*
X67729Y91351D01*
X67329Y90551D01*
X67729Y89751D01*
X66929Y90151D01*
X66129Y89751D01*
X50381Y97625D02*
X50781Y98425D01*
X50381Y99225D01*
X51181Y98825D01*
X51981Y99225D01*
X51581Y98425D01*
X51981Y97625D01*
X51181Y98025D01*
X50381Y97625D01*
X38570D02*
X38970Y98425D01*
X38570Y99225D01*
X39370Y98825D01*
X40170Y99225D01*
X39770Y98425D01*
X40170Y97625D01*
X39370Y98025D01*
X38570Y97625D01*
X38360Y87939D02*
X38760Y88739D01*
X38360Y89539D01*
X39160Y89139D01*
X39960Y89539D01*
X39560Y88739D01*
X39960Y87939D01*
X39160Y88339D01*
X38360Y87939D01*
X49040D02*
X49440Y88739D01*
X49040Y89539D01*
X49840Y89139D01*
X50640Y89539D01*
X50240Y88739D01*
X50640Y87939D01*
X49840Y88339D01*
X49040Y87939D01*
X49094Y74385D02*
X49494Y75185D01*
X49094Y75985D01*
X49894Y75585D01*
X50694Y75985D01*
X50294Y75185D01*
X50694Y74385D01*
X49894Y74785D01*
X49094Y74385D01*
X40600Y49600D02*
Y49200D01*
X41400D01*
Y49600D01*
X41800D01*
Y50400D01*
X41400D01*
Y50800D01*
X40600D01*
Y50400D01*
X40200D01*
Y49600D01*
X40600D01*
X84239Y102784D02*
X84639D01*
X85039Y103184D01*
X85439Y102784D01*
X85839D01*
Y103184D01*
X85439Y103584D01*
X85839Y103984D01*
Y104384D01*
X85439D01*
X85039Y103984D01*
X84639Y104384D01*
X84239D01*
Y103984D01*
X84639Y103584D01*
X84239Y103184D01*
Y102784D01*
X66600Y30600D02*
Y30200D01*
X67400D01*
Y30600D01*
X67800D01*
Y31400D01*
X67400D01*
Y31800D01*
X66600D01*
Y31400D01*
X66200D01*
Y30600D01*
X66600D01*
X112600Y42600D02*
Y42200D01*
X113400D01*
Y42600D01*
X113800D01*
Y43400D01*
X113400D01*
Y43800D01*
X112600D01*
Y43400D01*
X112200D01*
Y42600D01*
X112600D01*
X123600Y54600D02*
Y54200D01*
X124400D01*
Y54600D01*
X124800D01*
Y55400D01*
X124400D01*
Y55800D01*
X123600D01*
Y55400D01*
X123200D01*
Y54600D01*
X123600D01*
Y48600D02*
Y48200D01*
X124400D01*
Y48600D01*
X124800D01*
Y49400D01*
X124400D01*
Y49800D01*
X123600D01*
Y49400D01*
X123200D01*
Y48600D01*
X123600D01*
X36200Y69200D02*
X36600D01*
X37000Y69600D01*
X37400Y69200D01*
X37800D01*
Y69600D01*
X37400Y70000D01*
X37800Y70400D01*
Y70800D01*
X37400D01*
X37000Y70400D01*
X36600Y70800D01*
X36200D01*
Y70400D01*
X36600Y70000D01*
X36200Y69600D01*
Y69200D01*
X138600Y57600D02*
Y57200D01*
X139400D01*
Y57600D01*
X139800D01*
Y58400D01*
X139400D01*
Y58800D01*
X138600D01*
Y58400D01*
X138200D01*
Y57600D01*
X138600D01*
X84600Y56600D02*
Y56200D01*
X85400D01*
Y56600D01*
X85800D01*
Y57400D01*
X85400D01*
Y57800D01*
X84600D01*
Y57400D01*
X84200D01*
Y56600D01*
X84600D01*
X26200Y121200D02*
X26600D01*
X27000Y121600D01*
X27400Y121200D01*
X27800D01*
Y121600D01*
X27400Y122000D01*
X27800Y122400D01*
Y122800D01*
X27400D01*
X27000Y122400D01*
X26600Y122800D01*
X26200D01*
Y122400D01*
X26600Y122000D01*
X26200Y121600D01*
Y121200D01*
X90600Y64600D02*
Y64200D01*
X91400D01*
Y64600D01*
X91800D01*
Y65400D01*
X91400D01*
Y65800D01*
X90600D01*
Y65400D01*
X90200D01*
Y64600D01*
X90600D01*
X121600Y103600D02*
Y103200D01*
X122400D01*
Y103600D01*
X122800D01*
Y104400D01*
X122400D01*
Y104800D01*
X121600D01*
Y104400D01*
X121200D01*
Y103600D01*
X121600D01*
X124518Y85455D02*
Y85055D01*
X125318D01*
Y85455D01*
X125717D01*
Y86255D01*
X125318D01*
Y86655D01*
X124518D01*
Y86255D01*
X124118D01*
Y85455D01*
X124518D01*
X34600Y49600D02*
Y49200D01*
X35400D01*
Y49600D01*
X35800D01*
Y50400D01*
X35400D01*
Y50800D01*
X34600D01*
Y50400D01*
X34200D01*
Y49600D01*
X34600D01*
X25600D02*
Y49200D01*
X26400D01*
Y49600D01*
X26800D01*
Y50400D01*
X26400D01*
Y50800D01*
X25600D01*
Y50400D01*
X25200D01*
Y49600D01*
X25600D01*
X16600D02*
Y49200D01*
X17400D01*
Y49600D01*
X17800D01*
Y50400D01*
X17400D01*
Y50800D01*
X16600D01*
Y50400D01*
X16200D01*
Y49600D01*
X16600D01*
X94600Y40600D02*
Y40200D01*
X95400D01*
Y40600D01*
X95800D01*
Y41400D01*
X95400D01*
Y41800D01*
X94600D01*
Y41400D01*
X94200D01*
Y40600D01*
X94600D01*
X87600D02*
Y40200D01*
X88400D01*
Y40600D01*
X88800D01*
Y41400D01*
X88400D01*
Y41800D01*
X87600D01*
Y41400D01*
X87200D01*
Y40600D01*
X87600D01*
X104600Y46600D02*
Y46200D01*
X105400D01*
Y46600D01*
X105800D01*
Y47400D01*
X105400D01*
Y47800D01*
X104600D01*
Y47400D01*
X104200D01*
Y46600D01*
X104600D01*
X87600D02*
Y46200D01*
X88400D01*
Y46600D01*
X88800D01*
Y47400D01*
X88400D01*
Y47800D01*
X87600D01*
Y47400D01*
X87200D01*
Y46600D01*
X87600D01*
D69*
X9800Y168000D02*
G03*
X9800Y168000I-800J0D01*
G01*
X168800Y9000D02*
G03*
X168800Y9000I-800J0D01*
G01*
M02*
