G04*
G04 #@! TF.GenerationSoftware,Altium Limited,Altium Designer,22.1.2 (22)*
G04*
G04 Layer_Color=32768*
%FSLAX25Y25*%
%MOIN*%
G70*
G04*
G04 #@! TF.SameCoordinates,916DC4FC-BA67-46E0-AC62-78C5DE96CB0C*
G04*
G04*
G04 #@! TF.FilePolarity,Positive*
G04*
G01*
G75*
%ADD12C,0.01000*%
%ADD13C,0.00394*%
G36*
X145607Y105794D02*
X146457Y104945D01*
X145600D01*
X145607Y104952D01*
Y105794D01*
X147040D01*
X147883Y104952D01*
X145607D01*
Y105794D01*
X145635Y105822D01*
Y106448D01*
X146199D01*
X146997Y105650D01*
X145607Y105794D01*
D02*
G37*
G36*
Y141794D02*
X146457Y140945D01*
X145600D01*
X145607Y140952D01*
Y141794D01*
X147040D01*
X147883Y140952D01*
X145607D01*
Y141794D01*
X145635Y141822D01*
Y142448D01*
X146199D01*
X146997Y141650D01*
X145607Y141794D01*
D02*
G37*
D12*
X68465Y84807D02*
G03*
X68465Y84807I-394J0D01*
G01*
D13*
X68669Y162216D02*
X77331D01*
X68669Y141252D02*
Y162216D01*
Y141252D02*
X77331D01*
Y162216D01*
X74925Y158701D02*
Y161701D01*
X73425Y160201D02*
X76425D01*
X79047Y131079D02*
X107000D01*
X79047Y175567D02*
X107000D01*
X79047Y131079D02*
Y175567D01*
X107000Y131079D02*
Y175567D01*
X93024Y151354D02*
Y155291D01*
X91055Y153323D02*
X94992D01*
X110000Y131079D02*
X137953D01*
X110000Y175567D02*
X137953D01*
X110000Y131079D02*
Y175567D01*
X137953Y131079D02*
Y175567D01*
X123976Y151354D02*
Y155291D01*
X122008Y153323D02*
X125945D01*
X128275Y130150D02*
X137724D01*
X128275Y112040D02*
Y130150D01*
Y112040D02*
X137724D01*
Y130150D01*
X104217Y121669D02*
Y130331D01*
X83252D02*
X104217D01*
X83252Y121669D02*
Y130331D01*
Y121669D02*
X104217D01*
X100701Y124075D02*
X103701D01*
X102201Y122575D02*
Y125575D01*
X109039Y120276D02*
Y129724D01*
Y120276D02*
X127150D01*
Y129724D01*
X109039D02*
X127150D01*
X98276Y100850D02*
X107725D01*
Y118960D01*
X98276D02*
X107725D01*
X98276Y100850D02*
Y118960D01*
X108304Y100831D02*
X117753D01*
Y118942D01*
X108304D02*
X117753D01*
X108304Y100831D02*
Y118942D01*
X114905Y77031D02*
Y80968D01*
X112936Y78999D02*
X116873D01*
X94432Y58527D02*
X135377D01*
X94432Y99472D02*
X135377D01*
Y58527D02*
Y99472D01*
X94432Y58527D02*
Y99472D01*
X70040Y69275D02*
Y78724D01*
Y69275D02*
X88150D01*
Y78724D01*
X70040D02*
X88150D01*
Y59276D02*
Y68725D01*
X70040D02*
X88150D01*
X70040Y59276D02*
Y68725D01*
Y59276D02*
X88150D01*
Y90276D02*
Y99724D01*
X70040D02*
X88150D01*
X70040Y90276D02*
Y99724D01*
Y90276D02*
X88150D01*
Y80276D02*
Y89725D01*
X70040D02*
X88150D01*
X70040Y80276D02*
Y89725D01*
Y80276D02*
X88150D01*
X52317Y85593D02*
X67589D01*
X52317Y72509D02*
Y85593D01*
Y72509D02*
X67589D01*
Y85593D01*
X136039Y89276D02*
Y98724D01*
Y89276D02*
X154150D01*
Y98724D01*
X136039D02*
X154150D01*
X136039Y59276D02*
Y68724D01*
Y59276D02*
X154150D01*
Y68724D01*
X136039D02*
X154150D01*
X114850Y6370D02*
X132961D01*
X114850D02*
Y15819D01*
X132961D01*
Y6370D02*
Y15819D01*
X135850Y15818D02*
X153960D01*
Y6369D02*
Y15818D01*
X135850Y6369D02*
X153960D01*
X135850D02*
Y15818D01*
X145276Y17944D02*
Y36054D01*
X154725D01*
Y17944D02*
Y36054D01*
X145276Y17944D02*
X154725D01*
X134000Y25126D02*
Y29063D01*
X132032Y27095D02*
X135968D01*
X123764Y16858D02*
X144236D01*
X123764Y37331D02*
X144236D01*
Y16858D02*
Y37331D01*
X123764Y16858D02*
Y37331D01*
X134850Y47724D02*
X152960D01*
Y38275D02*
Y47724D01*
X134850Y38275D02*
X152960D01*
X134850D02*
Y47724D01*
X115138Y38276D02*
X133248D01*
X115138D02*
Y47724D01*
X133248D01*
Y38276D02*
Y47724D01*
X122724Y18138D02*
Y36248D01*
X113276Y18138D02*
X122724D01*
X113276D02*
Y36248D01*
X122724D01*
X69276Y33961D02*
X78724D01*
X69276Y15850D02*
Y33961D01*
Y15850D02*
X78724D01*
Y33961D01*
X68173Y1094D02*
Y12905D01*
X109906D01*
Y1094D02*
Y12905D01*
X68173Y1094D02*
X109906D01*
X24276Y86961D02*
X33724D01*
X24276Y68850D02*
Y86961D01*
Y68850D02*
X33724D01*
Y86961D01*
X24276Y88039D02*
X33724D01*
Y106150D01*
X24276D02*
X33724D01*
X24276Y88039D02*
Y106150D01*
X14276Y125248D02*
X23724D01*
X14276Y107138D02*
Y125248D01*
Y107138D02*
X23724D01*
Y125248D01*
X12905Y107331D02*
Y158905D01*
X1094Y107331D02*
X12905D01*
X1094D02*
Y158905D01*
X12905D01*
X79371Y33971D02*
X88820D01*
X79371Y15861D02*
Y33971D01*
Y15861D02*
X88820D01*
Y33971D01*
X1654Y69784D02*
X23110D01*
X1555Y69882D02*
X1654Y69784D01*
X1555Y69882D02*
Y104429D01*
X23110D01*
Y69784D02*
Y104429D01*
X162094Y93827D02*
X173906D01*
Y52095D02*
Y93827D01*
X162094Y52095D02*
X173906D01*
X162094D02*
Y93827D01*
Y51591D02*
X173906D01*
Y20095D02*
Y51591D01*
X162094Y20095D02*
X173906D01*
X162094D02*
Y20882D01*
Y51591D01*
X17630Y176409D02*
X66843D01*
Y127197D02*
Y176409D01*
X17630Y127197D02*
X66843D01*
X17630D02*
Y176409D01*
X197Y67126D02*
X2165D01*
X197Y197D02*
Y67126D01*
Y197D02*
X67126D01*
Y67126D01*
X66142D02*
X67126D01*
X2165D02*
X66142D01*
X145607Y140952D02*
Y141794D01*
Y140952D02*
X176244D01*
X176280Y140988D01*
Y176303D01*
X145607Y141794D02*
Y176303D01*
X176280D01*
X145607Y104952D02*
Y105794D01*
Y104952D02*
X176244D01*
X176280Y104988D01*
Y140303D01*
X145607Y105794D02*
Y140303D01*
X176280D01*
M02*
