G04*
G04 #@! TF.GenerationSoftware,Altium Limited,Altium Designer,22.1.2 (22)*
G04*
G04 Layer_Physical_Order=2*
G04 Layer_Color=16711680*
%FSLAX25Y25*%
%MOIN*%
G70*
G04*
G04 #@! TF.SameCoordinates,916DC4FC-BA67-46E0-AC62-78C5DE96CB0C*
G04*
G04*
G04 #@! TF.FilePolarity,Positive*
G04*
G01*
G75*
%ADD11C,0.02362*%
%ADD12C,0.01000*%
%ADD59C,0.03150*%
%ADD60C,0.01968*%
%ADD61C,0.06693*%
%ADD62R,0.06693X0.06693*%
%ADD63R,0.06693X0.06693*%
%ADD64C,0.07874*%
%ADD65C,0.02500*%
%ADD66C,0.02362*%
%ADD67C,0.03937*%
G36*
X176304Y861D02*
X861D01*
Y176304D01*
X176304D01*
X176304Y861D01*
D02*
G37*
%LPC*%
G36*
X11694Y174504D02*
X6306D01*
X2496Y170694D01*
Y165306D01*
X6306Y161496D01*
X11694D01*
X15504Y165306D01*
Y170694D01*
X11694Y174504D01*
D02*
G37*
G36*
X162879Y170535D02*
X159121D01*
X156465Y167879D01*
Y164121D01*
X159121Y161465D01*
X162879D01*
X165535Y164121D01*
Y167879D01*
X162879Y170535D01*
D02*
G37*
G36*
X163045Y157158D02*
X161500D01*
Y152720D01*
X165937D01*
Y154265D01*
X163045Y157158D01*
D02*
G37*
G36*
X160500D02*
X158955D01*
X156063Y154265D01*
Y152720D01*
X160500D01*
Y157158D01*
D02*
G37*
G36*
X58800Y156346D02*
X57500D01*
Y152500D01*
X61347D01*
Y153800D01*
X58800Y156346D01*
D02*
G37*
G36*
X56500D02*
X55200D01*
X52653Y153800D01*
Y152500D01*
X56500D01*
Y156346D01*
D02*
G37*
G36*
X28713Y155945D02*
X25445D01*
X23134Y153634D01*
Y150366D01*
X25445Y148055D01*
X28713D01*
X31024Y150366D01*
Y153634D01*
X28713Y155945D01*
D02*
G37*
G36*
X61347Y151500D02*
X57500D01*
Y147653D01*
X58800D01*
X61347Y150200D01*
Y151500D01*
D02*
G37*
G36*
X56500D02*
X52653D01*
Y150200D01*
X55200Y147653D01*
X56500D01*
Y151500D01*
D02*
G37*
G36*
X165937Y151720D02*
X161500D01*
Y147283D01*
X163045D01*
X165937Y150175D01*
Y151720D01*
D02*
G37*
G36*
X160500D02*
X156063D01*
Y150175D01*
X158955Y147283D01*
X160500D01*
Y151720D01*
D02*
G37*
G36*
X8634Y146945D02*
X5366D01*
X3055Y144634D01*
Y141366D01*
X5366Y139055D01*
X8634D01*
X10945Y141366D01*
Y144634D01*
X8634Y146945D01*
D02*
G37*
G36*
X8800Y137346D02*
X7500D01*
Y133500D01*
X11347D01*
Y134800D01*
X8800Y137346D01*
D02*
G37*
G36*
X6500D02*
X5200D01*
X2654Y134800D01*
Y133500D01*
X6500D01*
Y137346D01*
D02*
G37*
G36*
X11347Y132500D02*
X7500D01*
Y128654D01*
X8800D01*
X11347Y131200D01*
Y132500D01*
D02*
G37*
G36*
X6500D02*
X2654D01*
Y131200D01*
X5200Y128654D01*
X6500D01*
Y132500D01*
D02*
G37*
G36*
X162879Y134535D02*
X159121D01*
X156465Y131879D01*
Y128121D01*
X159121Y125465D01*
X162879D01*
X165535Y128121D01*
Y131879D01*
X162879Y134535D01*
D02*
G37*
G36*
X8634Y126945D02*
X5366D01*
X3055Y124634D01*
Y121366D01*
X5366Y119055D01*
X8634D01*
X10945Y121366D01*
Y124634D01*
X8634Y126945D01*
D02*
G37*
G36*
X163045Y121158D02*
X161500D01*
Y116720D01*
X165937D01*
Y118265D01*
X163045Y121158D01*
D02*
G37*
G36*
X160500D02*
X158955D01*
X156063Y118265D01*
Y116720D01*
X160500D01*
Y121158D01*
D02*
G37*
G36*
X165937Y115720D02*
X161500D01*
Y111284D01*
X163045D01*
X165937Y114175D01*
Y115720D01*
D02*
G37*
G36*
X160500D02*
X156063D01*
Y114175D01*
X158955Y111284D01*
X160500D01*
Y115720D01*
D02*
G37*
G36*
X8634Y116945D02*
X5366D01*
X3055Y114634D01*
Y111366D01*
X5366Y109055D01*
X8634D01*
X10945Y111366D01*
Y114634D01*
X8634Y116945D01*
D02*
G37*
G36*
X79672Y92801D02*
X79240D01*
Y91051D01*
X80990D01*
Y91483D01*
X79672Y92801D01*
D02*
G37*
G36*
X78240D02*
X77808D01*
X76490Y91483D01*
Y91051D01*
X78240D01*
Y92801D01*
D02*
G37*
G36*
X67861D02*
X67429D01*
Y91051D01*
X69179D01*
Y91483D01*
X67861Y92801D01*
D02*
G37*
G36*
X66429D02*
X65997D01*
X64679Y91483D01*
Y91051D01*
X66429D01*
Y92801D01*
D02*
G37*
G36*
X80990Y90051D02*
X79240D01*
Y88301D01*
X79672D01*
X80990Y89619D01*
Y90051D01*
D02*
G37*
G36*
X78240D02*
X76490D01*
Y89619D01*
X77808Y88301D01*
X78240D01*
Y90051D01*
D02*
G37*
G36*
X69179D02*
X67429D01*
Y88301D01*
X67861D01*
X69179Y89619D01*
Y90051D01*
D02*
G37*
G36*
X66429D02*
X64679D01*
Y89619D01*
X65997Y88301D01*
X66429D01*
Y90051D01*
D02*
G37*
G36*
X122737Y105780D02*
X121263D01*
X120220Y104737D01*
Y103263D01*
X120811Y102672D01*
Y88772D01*
X121159Y87931D01*
X123138Y85953D01*
Y85118D01*
X124180Y84075D01*
X125655D01*
X126697Y85118D01*
Y86592D01*
X125655Y87634D01*
X124819D01*
X123189Y89265D01*
Y102672D01*
X123779Y103263D01*
Y104737D01*
X122737Y105780D01*
D02*
G37*
G36*
X169634Y91945D02*
X166366D01*
X164055Y89634D01*
Y86366D01*
X166366Y84055D01*
X169634D01*
X171945Y86366D01*
Y89634D01*
X169634Y91945D01*
D02*
G37*
G36*
X50826Y77435D02*
X50394D01*
Y75685D01*
X52144D01*
Y76117D01*
X50826Y77435D01*
D02*
G37*
G36*
X49394D02*
X48962D01*
X47644Y76117D01*
Y75685D01*
X49394D01*
Y77435D01*
D02*
G37*
G36*
X169634Y81945D02*
X166366D01*
X164055Y79634D01*
Y76366D01*
X166366Y74055D01*
X169634D01*
X171945Y76366D01*
Y79634D01*
X169634Y81945D01*
D02*
G37*
G36*
X52144Y74685D02*
X50394D01*
Y72935D01*
X50826D01*
X52144Y74253D01*
Y74685D01*
D02*
G37*
G36*
X49394D02*
X47644D01*
Y74253D01*
X48962Y72935D01*
X49394D01*
Y74685D01*
D02*
G37*
G36*
X169800Y72347D02*
X168500D01*
Y68500D01*
X172346D01*
Y69800D01*
X169800Y72347D01*
D02*
G37*
G36*
X167500D02*
X166200D01*
X163654Y69800D01*
Y68500D01*
X167500D01*
Y72347D01*
D02*
G37*
G36*
X172346Y67500D02*
X168500D01*
Y63653D01*
X169800D01*
X172346Y66200D01*
Y67500D01*
D02*
G37*
G36*
X167500D02*
X163654D01*
Y66200D01*
X166200Y63653D01*
X167500D01*
Y67500D01*
D02*
G37*
G36*
X91737Y66780D02*
X90263D01*
X89220Y65737D01*
Y64263D01*
X89811Y63672D01*
Y56493D01*
X84508Y51189D01*
X42328D01*
X41737Y51780D01*
X40263D01*
X39220Y50737D01*
Y49370D01*
X39220Y49263D01*
X39173Y49178D01*
X37709Y48973D01*
X36779Y49902D01*
Y50737D01*
X35737Y51780D01*
X34263D01*
X33220Y50737D01*
Y49263D01*
X34263Y48221D01*
X35098D01*
X36949Y46370D01*
X36698Y45379D01*
X36586Y45189D01*
X32493D01*
X27779Y49902D01*
Y50737D01*
X26737Y51780D01*
X25263D01*
X24220Y50737D01*
Y49263D01*
X25263Y48221D01*
X26098D01*
X31159Y43159D01*
X32000Y42811D01*
X68042D01*
X68926Y41793D01*
X73480D01*
Y42225D01*
X73723Y42811D01*
X84508D01*
X86221Y41098D01*
Y40263D01*
X85996Y39720D01*
X74396D01*
X73480Y40792D01*
Y40793D01*
X68980D01*
Y40361D01*
X68715Y39720D01*
X28961D01*
X18779Y49902D01*
Y50737D01*
X17737Y51780D01*
X16263D01*
X15221Y50737D01*
Y49263D01*
X16263Y48221D01*
X17098D01*
X27628Y37691D01*
X28468Y37343D01*
X64274D01*
X64679Y36365D01*
Y35933D01*
X69179D01*
Y36365D01*
X69584Y37343D01*
X92532D01*
X93372Y37691D01*
X94902Y39220D01*
X95737D01*
X96780Y40263D01*
Y41737D01*
X95737Y42779D01*
X94263D01*
X93221Y41737D01*
Y40902D01*
X92039Y39720D01*
X90004D01*
X89780Y40263D01*
Y41737D01*
X88737Y42779D01*
X87902D01*
X86890Y43791D01*
X87169Y45182D01*
X87263Y45221D01*
X87263Y45220D01*
X87263Y45221D01*
X88737D01*
X89328Y45811D01*
X103672D01*
X104263Y45221D01*
X105737D01*
X106780Y46263D01*
Y47737D01*
X105737Y48779D01*
X104263D01*
X103672Y48189D01*
X89328D01*
X88737Y48779D01*
X87263D01*
X87169Y48818D01*
X86890Y50209D01*
X91841Y55159D01*
X92189Y56000D01*
Y63672D01*
X92779Y64263D01*
Y65737D01*
X91737Y66780D01*
D02*
G37*
G36*
X10945Y156945D02*
X3055D01*
Y149055D01*
X10945D01*
Y149058D01*
X12126Y149547D01*
X31975Y129699D01*
X26843Y124567D01*
X25937D01*
X24433Y123063D01*
Y120937D01*
X25937Y119433D01*
X28063D01*
X29567Y120937D01*
Y121843D01*
X34699Y126975D01*
X59460Y102214D01*
Y95184D01*
X36843Y72567D01*
X35937D01*
X34433Y71063D01*
Y68937D01*
X35937Y67433D01*
X38063D01*
X39567Y68937D01*
Y69843D01*
X62748Y93024D01*
X63312Y94386D01*
Y101262D01*
X83731D01*
X83975Y101017D01*
X86102D01*
X86347Y101262D01*
X89411D01*
X101496Y89177D01*
X84159Y71841D01*
X83811Y71000D01*
Y58328D01*
X83220Y57737D01*
Y56263D01*
X84263Y55221D01*
X85737D01*
X86779Y56263D01*
Y57737D01*
X86189Y58328D01*
Y70508D01*
X103177Y87496D01*
X124337Y66337D01*
X133790Y56883D01*
X133910Y55332D01*
X126961Y48383D01*
X125779Y48873D01*
Y49737D01*
X125189Y50328D01*
Y53672D01*
X125779Y54263D01*
Y55737D01*
X124737Y56779D01*
X123263D01*
X122221Y55737D01*
Y54263D01*
X122811Y53672D01*
Y50328D01*
X122221Y49737D01*
Y48263D01*
X123263Y47221D01*
X124127D01*
X124617Y46039D01*
X123290Y44713D01*
X113804D01*
X113737Y44780D01*
X112263D01*
X111221Y43737D01*
Y43643D01*
X100290Y32713D01*
X69061D01*
X68572Y33894D01*
X69179Y34501D01*
Y34933D01*
X64679D01*
Y34501D01*
X65525Y33655D01*
X65975Y33121D01*
X65635Y32152D01*
X65220Y31737D01*
Y30263D01*
X66263Y29221D01*
X67737D01*
X67804Y29287D01*
X101000D01*
X102211Y29789D01*
X113643Y41221D01*
X113737D01*
X113804Y41287D01*
X124000D01*
X125211Y41789D01*
X139070Y55648D01*
X164055D01*
Y54055D01*
X171945D01*
Y61945D01*
X164055D01*
Y60352D01*
X136974D01*
X128504Y68823D01*
X140085Y80404D01*
X140433Y81244D01*
Y85919D01*
X141024Y86509D01*
Y87984D01*
X139981Y89026D01*
X138507D01*
X137465Y87984D01*
Y86509D01*
X138055Y85919D01*
Y81737D01*
X126823Y70504D01*
X105663Y91663D01*
X105663Y91663D01*
X105663Y91663D01*
X92049Y105278D01*
X90386Y105966D01*
X86286D01*
X86102Y106151D01*
X83975D01*
X83791Y105966D01*
X62360D01*
X36663Y131663D01*
X13663Y154663D01*
X12000Y155352D01*
X10945D01*
Y156945D01*
D02*
G37*
G36*
X169800Y50346D02*
X168500D01*
Y46500D01*
X172346D01*
Y47800D01*
X169800Y50346D01*
D02*
G37*
G36*
X167500D02*
X166200D01*
X163654Y47800D01*
Y46500D01*
X167500D01*
Y50346D01*
D02*
G37*
G36*
X172346Y45500D02*
X168500D01*
Y41654D01*
X169800D01*
X172346Y44200D01*
Y45500D01*
D02*
G37*
G36*
X167500D02*
X163654D01*
Y44200D01*
X166200Y41654D01*
X167500D01*
Y45500D01*
D02*
G37*
G36*
X169634Y39945D02*
X166366D01*
X164055Y37634D01*
Y34366D01*
X166366Y32055D01*
X169634D01*
X171945Y34366D01*
Y37634D01*
X169634Y39945D01*
D02*
G37*
G36*
X85392Y27196D02*
X84960D01*
Y25446D01*
X86710D01*
Y25878D01*
X85392Y27196D01*
D02*
G37*
G36*
X83960D02*
X83528D01*
X82210Y25878D01*
Y25446D01*
X83960D01*
Y27196D01*
D02*
G37*
G36*
X74809Y27089D02*
X74377D01*
Y25339D01*
X76127D01*
Y25771D01*
X74809Y27089D01*
D02*
G37*
G36*
X73377D02*
X72945D01*
X71627Y25771D01*
Y25339D01*
X73377D01*
Y27089D01*
D02*
G37*
G36*
X86710Y24446D02*
X84960D01*
Y22696D01*
X85392D01*
X86710Y24014D01*
Y24446D01*
D02*
G37*
G36*
X83960D02*
X82210D01*
Y24014D01*
X83528Y22696D01*
X83960D01*
Y24446D01*
D02*
G37*
G36*
X76127Y24339D02*
X74377D01*
Y22589D01*
X74809D01*
X76127Y23907D01*
Y24339D01*
D02*
G37*
G36*
X73377D02*
X71627D01*
Y23907D01*
X72945Y22589D01*
X73377D01*
Y24339D01*
D02*
G37*
G36*
X171945Y29945D02*
X164055D01*
Y22055D01*
X171945D01*
Y29945D01*
D02*
G37*
G36*
X142998Y21082D02*
X142566D01*
Y19332D01*
X144316D01*
Y19764D01*
X142998Y21082D01*
D02*
G37*
G36*
X141566D02*
X141134D01*
X139816Y19764D01*
Y19332D01*
X141566D01*
Y21082D01*
D02*
G37*
G36*
X144316Y18332D02*
X142566D01*
Y16582D01*
X142998D01*
X144316Y17900D01*
Y18332D01*
D02*
G37*
G36*
X141566D02*
X139816D01*
Y17900D01*
X141134Y16582D01*
X141566D01*
Y18332D01*
D02*
G37*
G36*
X47375Y20580D02*
X45412D01*
X44024Y19191D01*
Y17228D01*
X45412Y15840D01*
X47375D01*
X48764Y17228D01*
Y19191D01*
X47375Y20580D01*
D02*
G37*
G36*
X15879D02*
X13916D01*
X12528Y19191D01*
Y17228D01*
X13916Y15840D01*
X15879D01*
X17268Y17228D01*
Y19191D01*
X15879Y20580D01*
D02*
G37*
G36*
X95800Y11347D02*
X94500D01*
Y7500D01*
X98347D01*
Y8800D01*
X95800Y11347D01*
D02*
G37*
G36*
X93500D02*
X92200D01*
X89653Y8800D01*
Y7500D01*
X93500D01*
Y11347D01*
D02*
G37*
G36*
X107945Y10945D02*
X100055D01*
Y3055D01*
X107945D01*
Y10945D01*
D02*
G37*
G36*
X85634D02*
X82366D01*
X80055Y8634D01*
Y5366D01*
X82366Y3055D01*
X85634D01*
X87945Y5366D01*
Y8634D01*
X85634Y10945D01*
D02*
G37*
G36*
X75634D02*
X72366D01*
X70055Y8634D01*
Y5366D01*
X72366Y3055D01*
X75634D01*
X77945Y5366D01*
Y8634D01*
X75634Y10945D01*
D02*
G37*
G36*
X98347Y6500D02*
X94500D01*
Y2654D01*
X95800D01*
X98347Y5200D01*
Y6500D01*
D02*
G37*
G36*
X93500D02*
X89653D01*
Y5200D01*
X92200Y2654D01*
X93500D01*
Y6500D01*
D02*
G37*
G36*
X170694Y15504D02*
X165306D01*
X161496Y11694D01*
Y6306D01*
X165306Y2496D01*
X170694D01*
X174504Y6306D01*
Y11694D01*
X170694Y15504D01*
D02*
G37*
%LPD*%
D11*
X27000Y122000D02*
X35000Y130000D01*
X37000Y70000D02*
X61386Y94386D01*
Y103614D01*
D12*
X139244Y81244D02*
Y87247D01*
X126000Y68000D02*
X139244Y81244D01*
X28468Y38532D02*
X92532D01*
X95000Y41000D01*
X17000Y50000D02*
X28468Y38532D01*
X38000Y47000D02*
X88000D01*
X32000Y44000D02*
X85000D01*
X88000Y47000D02*
X105000D01*
X35000Y50000D02*
X38000Y47000D01*
X26000Y50000D02*
X32000Y44000D01*
X85000D02*
X88000Y41000D01*
X41000Y50000D02*
X85000D01*
X124000Y49000D02*
Y55000D01*
X85000Y71000D02*
X104000Y90000D01*
X85000Y57000D02*
Y71000D01*
X91000Y56000D02*
Y65000D01*
X85000Y50000D02*
X91000Y56000D01*
X122000Y88772D02*
X124917Y85855D01*
X122000Y88772D02*
Y104000D01*
D59*
X61386Y103614D02*
X90386D01*
X7000Y153000D02*
X12000D01*
X35000Y130000D01*
X61386Y103614D01*
X104000Y90000D02*
X104000D01*
X90386Y103614D02*
X104000Y90000D01*
X126000Y68000D02*
X136000Y58000D01*
X104000Y90000D02*
X126000Y68000D01*
X139000Y58000D02*
X168000D01*
X136000D02*
X139000D01*
D60*
X101000Y31000D02*
X113000Y43000D01*
X67000Y31000D02*
X101000D01*
X113000Y43000D02*
X124000D01*
X139000Y58000D01*
D61*
X74000Y7000D02*
D03*
X94000D02*
D03*
X84000D02*
D03*
X7000Y113000D02*
D03*
Y123000D02*
D03*
Y143000D02*
D03*
Y133000D02*
D03*
X168000Y88000D02*
D03*
Y68000D02*
D03*
Y78000D02*
D03*
Y46000D02*
D03*
Y36000D02*
D03*
X57000Y152000D02*
D03*
X27079D02*
D03*
D62*
X104000Y7000D02*
D03*
D63*
X7000Y153000D02*
D03*
X168000Y58000D02*
D03*
Y26000D02*
D03*
D64*
X161000Y166000D02*
D03*
Y152220D02*
D03*
Y130000D02*
D03*
Y116220D02*
D03*
D65*
X174436Y15683D02*
D03*
X104515Y15127D02*
D03*
X96377D02*
D03*
X116735Y50696D02*
D03*
X118211Y27077D02*
D03*
X15551Y135870D02*
D03*
X78993Y56958D02*
D03*
X91244Y87291D02*
D03*
X94812Y61195D02*
D03*
X92157Y96543D02*
D03*
X131888Y98442D02*
D03*
X153543Y74803D02*
D03*
X79749Y73928D02*
D03*
X142066Y18832D02*
D03*
X91695Y135943D02*
D03*
X78740Y118110D02*
D03*
X86614D02*
D03*
X94488D02*
D03*
X169291Y145669D02*
D03*
Y137795D02*
D03*
X149606D02*
D03*
X141732D02*
D03*
Y157480D02*
D03*
Y169291D02*
D03*
X110236Y157480D02*
D03*
Y169291D02*
D03*
X74803D02*
D03*
X62992D02*
D03*
X51181D02*
D03*
X39370D02*
D03*
X27559D02*
D03*
X43307Y149606D02*
D03*
X66929Y125984D02*
D03*
X55118D02*
D03*
X66929Y137795D02*
D03*
X55118D02*
D03*
X43307D02*
D03*
X162279Y97531D02*
D03*
Y105118D02*
D03*
X146765Y107916D02*
D03*
Y114995D02*
D03*
Y121056D02*
D03*
X158465Y85264D02*
D03*
X150928D02*
D03*
X22702Y116352D02*
D03*
X15594D02*
D03*
X15748Y90551D02*
D03*
Y82677D02*
D03*
X7874D02*
D03*
Y90551D02*
D03*
X15748Y27559D02*
D03*
X23622D02*
D03*
X31496D02*
D03*
X39370D02*
D03*
X47244D02*
D03*
Y35433D02*
D03*
X39370D02*
D03*
X31496D02*
D03*
X23622D02*
D03*
X15748D02*
D03*
X156933Y18271D02*
D03*
Y33005D02*
D03*
Y43045D02*
D03*
X149972Y26754D02*
D03*
X102672Y40982D02*
D03*
X111285Y11196D02*
D03*
X104515Y22193D02*
D03*
X96377D02*
D03*
X84460Y24946D02*
D03*
X73877Y24839D02*
D03*
X66929Y35433D02*
D03*
X71230Y41293D02*
D03*
X116839Y69062D02*
D03*
X124103Y76284D02*
D03*
X116882Y88178D02*
D03*
X108131Y71611D02*
D03*
X78740Y90551D02*
D03*
X66929D02*
D03*
X51181Y98425D02*
D03*
X39370D02*
D03*
X39160Y88739D02*
D03*
X49840D02*
D03*
X49894Y75185D02*
D03*
D66*
X139244Y87247D02*
D03*
X41000Y50000D02*
D03*
X67000Y31000D02*
D03*
X113000Y43000D02*
D03*
X124000Y55000D02*
D03*
Y49000D02*
D03*
X139000Y58000D02*
D03*
X85000Y57000D02*
D03*
X91000Y65000D02*
D03*
X122000Y104000D02*
D03*
X124917Y85855D02*
D03*
X35000Y50000D02*
D03*
X26000D02*
D03*
X17000D02*
D03*
X95000Y41000D02*
D03*
X88000D02*
D03*
X105000Y47000D02*
D03*
X88000D02*
D03*
D67*
X85039Y103584D02*
D03*
X37000Y70000D02*
D03*
X27000Y122000D02*
D03*
M02*
