G04*
G04 #@! TF.GenerationSoftware,Altium Limited,Altium Designer,22.1.2 (22)*
G04*
G04 Layer_Color=65535*
%FSLAX25Y25*%
%MOIN*%
G70*
G04*
G04 #@! TF.SameCoordinates,916DC4FC-BA67-46E0-AC62-78C5DE96CB0C*
G04*
G04*
G04 #@! TF.FilePolarity,Positive*
G04*
G01*
G75*
%ADD10C,0.00984*%
%ADD11C,0.02362*%
%ADD12C,0.01000*%
%ADD13C,0.00394*%
%ADD14C,0.00591*%
G36*
X73299Y46341D02*
Y45456D01*
X74185Y46341D01*
X73299D01*
D02*
G37*
G36*
X147095Y108609D02*
X149349Y106354D01*
X147244D01*
X146719Y106880D01*
Y108374D01*
X147095Y108609D01*
D02*
G37*
G36*
Y144609D02*
X149349Y142354D01*
X147244D01*
X146719Y142880D01*
Y144374D01*
X147095Y144609D01*
D02*
G37*
D10*
X80405Y136000D02*
G03*
X80405Y136000I-492J0D01*
G01*
X111358D02*
G03*
X111358Y136000I-492J0D01*
G01*
X98763Y92582D02*
G03*
X98763Y92582I-492J0D01*
G01*
X123272Y35165D02*
G03*
X123272Y35165I-492J0D01*
G01*
X43736Y64962D02*
G03*
X43736Y64962I-492J0D01*
G01*
D11*
X107621Y87464D02*
G03*
X107621Y87464I-1181J0D01*
G01*
D12*
X68184Y85112D02*
G03*
X68184Y85112I-394J0D01*
G01*
D13*
X76494Y160592D02*
Y162266D01*
X69850Y151882D02*
X76150D01*
X75657Y161429D02*
X77331D01*
X80032Y145055D02*
Y148795D01*
Y145055D02*
X106016D01*
Y148795D01*
X110984Y145055D02*
Y148795D01*
Y145055D02*
X136969D01*
Y148795D01*
X129831Y121095D02*
X136169D01*
X102593Y122506D02*
X104266D01*
X93882Y122850D02*
Y129150D01*
X103429Y121669D02*
Y123343D01*
X118095Y121832D02*
Y128170D01*
X99831Y109906D02*
X106169D01*
X109858Y109887D02*
X116197D01*
X102700Y66795D02*
X127110D01*
X102700Y91204D02*
X127110D01*
Y66795D02*
Y91204D01*
X102700Y66795D02*
Y91204D01*
X79096Y70831D02*
Y77169D01*
X79094Y60831D02*
Y67169D01*
Y91830D02*
Y98168D01*
Y81831D02*
Y88169D01*
X53237Y77771D02*
Y79345D01*
X60145Y72912D02*
X61539D01*
X66345Y78182D02*
Y79575D01*
X59864Y84412D02*
X61439D01*
X145095Y90832D02*
Y97170D01*
Y60831D02*
Y67170D01*
X123905Y7925D02*
Y14263D01*
X144905Y7925D02*
Y14264D01*
X146831Y27000D02*
X153169D01*
X125339Y18433D02*
X127209D01*
X125339D02*
Y20303D01*
X140791Y18433D02*
X142661D01*
Y20303D01*
Y33886D02*
Y35756D01*
X140791D02*
X142661D01*
X125339D02*
X127209D01*
X125339Y33886D02*
Y35756D01*
X143905Y39831D02*
Y46169D01*
X124192Y39830D02*
Y46169D01*
X114831Y27192D02*
X121170D01*
X73299Y36499D02*
Y46341D01*
X84323D01*
Y36105D02*
Y46341D01*
X73299Y36105D02*
X84323D01*
X73299D02*
Y36499D01*
X70832Y24905D02*
X77170D01*
X109512Y1488D02*
Y12512D01*
X68567D02*
X109512D01*
X68567Y1488D02*
Y12512D01*
Y1488D02*
X109512D01*
X25831Y77905D02*
X32170D01*
X25830Y97095D02*
X32168D01*
X15832Y116192D02*
X22170D01*
X12512Y107724D02*
Y158512D01*
X1488Y107724D02*
X12512D01*
X1488D02*
Y158512D01*
X12512D01*
X80927Y24915D02*
X87266D01*
X2047Y70472D02*
X22224D01*
X2047D02*
Y103937D01*
X22323D01*
Y70571D02*
Y103937D01*
X162488Y52488D02*
X173512D01*
Y93433D01*
X162488D02*
X173512D01*
X162488Y52488D02*
Y93433D01*
Y20488D02*
X173512D01*
Y51197D01*
X162488D02*
X173512D01*
X162488Y20488D02*
Y51197D01*
X18024Y176016D02*
X66449D01*
Y127591D02*
Y176016D01*
X18024Y127591D02*
X66449D01*
X18024D02*
Y176016D01*
X25110Y159382D02*
X29047D01*
X27079Y157413D02*
Y161350D01*
X64468Y1978D02*
Y12304D01*
X4498Y1978D02*
Y12304D01*
Y1978D02*
X64468D01*
X4626Y25000D02*
Y52559D01*
X4232Y61614D02*
Y65945D01*
X64075D01*
Y26575D02*
Y52559D01*
Y61221D02*
Y65945D01*
X146925Y142673D02*
Y175055D01*
X174878Y142476D02*
Y175055D01*
X146925D02*
X174878D01*
X147122Y142476D02*
X174878D01*
X146925Y106673D02*
Y139055D01*
X174878Y106476D02*
Y139055D01*
X146925D02*
X174878D01*
X147122Y106476D02*
X174878D01*
D14*
X73650Y138612D02*
X73978Y138940D01*
Y139596D01*
X73650Y139924D01*
X72338D01*
X72010Y139596D01*
Y138940D01*
X72338Y138612D01*
Y137956D02*
X72010Y137628D01*
Y136972D01*
X72338Y136644D01*
X73650D01*
X73978Y136972D01*
Y137628D01*
X73650Y137956D01*
X73322D01*
X72994Y137628D01*
Y136644D01*
X107166Y174389D02*
X105526D01*
X105198Y174061D01*
Y173405D01*
X105526Y173077D01*
X107166D01*
X105198Y171109D02*
Y172421D01*
X106510Y171109D01*
X106838D01*
X107166Y171437D01*
Y172093D01*
X106838Y172421D01*
X138758Y174699D02*
X137118D01*
X136790Y174371D01*
Y173715D01*
X137118Y173387D01*
X138758D01*
X136790Y172731D02*
Y172075D01*
Y172403D01*
X138758D01*
X138430Y172731D01*
X140251Y121388D02*
X140579Y121716D01*
Y122372D01*
X140251Y122700D01*
X138939D01*
X138611Y122372D01*
Y121716D01*
X138939Y121388D01*
X140579Y120732D02*
Y119420D01*
X140251D01*
X138939Y120732D01*
X138611D01*
X81170Y126118D02*
X81498Y126446D01*
Y127102D01*
X81170Y127430D01*
X79858D01*
X79530Y127102D01*
Y126446D01*
X79858Y126118D01*
X81170Y125462D02*
X81498Y125134D01*
Y124478D01*
X81170Y124150D01*
X80842D01*
X80514Y124478D01*
X80186Y124150D01*
X79858D01*
X79530Y124478D01*
Y125134D01*
X79858Y125462D01*
X80186D01*
X80514Y125134D01*
X80842Y125462D01*
X81170D01*
X80514Y125134D02*
Y124478D01*
X124599Y117260D02*
X124927Y117588D01*
Y118244D01*
X124599Y118572D01*
X123287D01*
X122959Y118244D01*
Y117588D01*
X123287Y117260D01*
X124927Y115292D02*
X124599Y115948D01*
X123943Y116604D01*
X123287D01*
X122959Y116276D01*
Y115620D01*
X123287Y115292D01*
X123615D01*
X123943Y115620D01*
Y116604D01*
X96650Y110552D02*
X96978Y110880D01*
Y111536D01*
X96650Y111864D01*
X95338D01*
X95010Y111536D01*
Y110880D01*
X95338Y110552D01*
X96978Y108584D02*
Y109896D01*
X95994D01*
X96322Y109240D01*
Y108912D01*
X95994Y108584D01*
X95338D01*
X95010Y108912D01*
Y109568D01*
X95338Y109896D01*
X119089Y111192D02*
X121057D01*
Y110208D01*
X120729Y109880D01*
X120073D01*
X119745Y110208D01*
Y111192D01*
Y110536D02*
X119089Y109880D01*
Y109224D02*
Y108568D01*
Y108896D01*
X121057D01*
X120729Y109224D01*
X99416Y98322D02*
X97776D01*
X97448Y97994D01*
Y97338D01*
X97776Y97010D01*
X99416D01*
X99088Y96355D02*
X99416Y96027D01*
Y95371D01*
X99088Y95043D01*
X98760D01*
X98432Y95371D01*
Y95699D01*
Y95371D01*
X98104Y95043D01*
X97776D01*
X97448Y95371D01*
Y96027D01*
X97776Y96355D01*
X90933Y74985D02*
X91261Y75314D01*
Y75969D01*
X90933Y76297D01*
X89621D01*
X89293Y75969D01*
Y75314D01*
X89621Y74985D01*
X89293Y74330D02*
Y73674D01*
Y74002D01*
X91261D01*
X90933Y74330D01*
X89293Y72690D02*
Y72034D01*
Y72362D01*
X91261D01*
X90933Y72690D01*
X73585Y57274D02*
X73914Y57601D01*
Y58258D01*
X73585Y58586D01*
X72274D01*
X71946Y58258D01*
Y57601D01*
X72274Y57274D01*
X71946Y55306D02*
Y56618D01*
X73257Y55306D01*
X73585D01*
X73914Y55634D01*
Y56290D01*
X73585Y56618D01*
X68593Y95135D02*
X68921Y95464D01*
Y96119D01*
X68593Y96447D01*
X67281D01*
X66953Y96119D01*
Y95464D01*
X67281Y95135D01*
X66953Y94480D02*
Y93824D01*
Y94152D01*
X68921D01*
X68593Y94480D01*
X91124Y83605D02*
X91452Y83933D01*
Y84588D01*
X91124Y84917D01*
X89812D01*
X89485Y84588D01*
Y83933D01*
X89812Y83605D01*
X89485Y82949D02*
Y82293D01*
Y82621D01*
X91452D01*
X91124Y82949D01*
Y81309D02*
X91452Y80981D01*
Y80325D01*
X91124Y79997D01*
X89812D01*
X89485Y80325D01*
Y80981D01*
X89812Y81309D01*
X91124D01*
X54525Y90274D02*
X54197D01*
X53541Y89618D01*
X54197Y88962D01*
X54525D01*
X53541Y89618D02*
X52557D01*
Y88306D02*
Y87650D01*
Y87978D01*
X54525D01*
X54197Y88306D01*
X145858Y101664D02*
X146186Y101992D01*
Y102648D01*
X145858Y102976D01*
X144546D01*
X144218Y102648D01*
Y101992D01*
X144546Y101664D01*
X144218Y100024D02*
X146186D01*
X145202Y101008D01*
Y99696D01*
X145720Y72055D02*
X146048Y72383D01*
Y73039D01*
X145720Y73367D01*
X144408D01*
X144080Y73039D01*
Y72383D01*
X144408Y72055D01*
X145720Y71399D02*
X146048Y71071D01*
Y70415D01*
X145720Y70087D01*
X145392D01*
X145064Y70415D01*
Y70743D01*
Y70415D01*
X144736Y70087D01*
X144408D01*
X144080Y70415D01*
Y71071D01*
X144408Y71399D01*
X124527Y4760D02*
X124855Y5088D01*
Y5744D01*
X124527Y6072D01*
X123215D01*
X122887Y5744D01*
Y5088D01*
X123215Y4760D01*
X122887Y4104D02*
Y3448D01*
Y3776D01*
X124855D01*
X124527Y4104D01*
X122887Y1153D02*
Y2464D01*
X124199Y1153D01*
X124527D01*
X124855Y1481D01*
Y2136D01*
X124527Y2464D01*
X145592Y4946D02*
X145920Y5274D01*
Y5930D01*
X145592Y6258D01*
X144280D01*
X143952Y5930D01*
Y5274D01*
X144280Y4946D01*
X143952Y4290D02*
Y3634D01*
Y3962D01*
X145920D01*
X145592Y4290D01*
X145920Y1338D02*
X145592Y1994D01*
X144936Y2650D01*
X144280D01*
X143952Y2322D01*
Y1666D01*
X144280Y1338D01*
X144608D01*
X144936Y1666D01*
Y2650D01*
X157364Y28118D02*
X157692Y28446D01*
Y29101D01*
X157364Y29430D01*
X156052D01*
X155724Y29101D01*
Y28446D01*
X156052Y28118D01*
X155724Y27462D02*
Y26806D01*
Y27134D01*
X157692D01*
X157364Y27462D01*
Y25822D02*
X157692Y25494D01*
Y24838D01*
X157364Y24510D01*
X157036D01*
X156708Y24838D01*
Y25166D01*
Y24838D01*
X156380Y24510D01*
X156052D01*
X155724Y24838D01*
Y25494D01*
X156052Y25822D01*
X135016Y52834D02*
X133376D01*
X133048Y52506D01*
Y51850D01*
X133376Y51522D01*
X135016D01*
X133048Y49882D02*
X135016D01*
X134032Y50866D01*
Y49554D01*
X144601Y52156D02*
X144929Y52484D01*
Y53140D01*
X144601Y53468D01*
X143289D01*
X142961Y53140D01*
Y52484D01*
X143289Y52156D01*
X142961Y51500D02*
Y50844D01*
Y51172D01*
X144929D01*
X144601Y51500D01*
X144929Y48549D02*
Y49861D01*
X143945D01*
X144273Y49205D01*
Y48877D01*
X143945Y48549D01*
X143289D01*
X142961Y48877D01*
Y49532D01*
X143289Y49861D01*
X111859Y50666D02*
X113827D01*
Y49682D01*
X113499Y49354D01*
X112843D01*
X112515Y49682D01*
Y50666D01*
Y50010D02*
X111859Y49354D01*
Y47386D02*
Y48698D01*
X113171Y47386D01*
X113499D01*
X113827Y47714D01*
Y48370D01*
X113499Y48698D01*
X111013Y28800D02*
X112981D01*
Y27816D01*
X112653Y27488D01*
X111997D01*
X111669Y27816D01*
Y28800D01*
Y28144D02*
X111013Y27488D01*
X112653Y26832D02*
X112981Y26504D01*
Y25848D01*
X112653Y25520D01*
X112325D01*
X111997Y25848D01*
Y26176D01*
Y25848D01*
X111669Y25520D01*
X111341D01*
X111013Y25848D01*
Y26504D01*
X111341Y26832D01*
X75914Y52062D02*
X74274D01*
X73946Y51734D01*
Y51078D01*
X74274Y50750D01*
X75914D01*
Y48782D02*
Y50094D01*
X74929D01*
X75257Y49438D01*
Y49110D01*
X74929Y48782D01*
X74274D01*
X73946Y49110D01*
Y49766D01*
X74274Y50094D01*
X91766Y32344D02*
X92094Y32672D01*
Y33328D01*
X91766Y33656D01*
X90454D01*
X90126Y33328D01*
Y32672D01*
X90454Y32344D01*
X90126Y31688D02*
Y31032D01*
Y31360D01*
X92094D01*
X91766Y31688D01*
X92094Y30048D02*
Y28736D01*
X91766D01*
X90454Y30048D01*
X90126D01*
X113225Y6387D02*
Y7043D01*
Y6715D01*
X111585D01*
X111257Y7043D01*
Y7371D01*
X111585Y7699D01*
X111257Y5731D02*
Y5075D01*
Y5403D01*
X113225D01*
X112897Y5731D01*
X35798Y79074D02*
X36126Y79402D01*
Y80058D01*
X35798Y80386D01*
X34486D01*
X34159Y80058D01*
Y79402D01*
X34486Y79074D01*
X34159Y78418D02*
Y77762D01*
Y78090D01*
X36126D01*
X35798Y78418D01*
X34159Y75794D02*
X36126D01*
X35142Y76778D01*
Y75466D01*
X34104Y98823D02*
X36072D01*
Y97839D01*
X35744Y97511D01*
X35088D01*
X34760Y97839D01*
Y98823D01*
Y98167D02*
X34104Y97511D01*
X36072Y95543D02*
Y96855D01*
X35088D01*
X35416Y96199D01*
Y95871D01*
X35088Y95543D01*
X34432D01*
X34104Y95871D01*
Y96527D01*
X34432Y96855D01*
X24611Y113849D02*
X26579D01*
Y112865D01*
X26251Y112537D01*
X25595D01*
X25267Y112865D01*
Y113849D01*
Y113193D02*
X24611Y112537D01*
Y110897D02*
X26579D01*
X25595Y111881D01*
Y110569D01*
X145223Y134172D02*
Y134828D01*
Y134500D01*
X143583D01*
X143255Y134828D01*
Y135156D01*
X143583Y135484D01*
X145223Y133516D02*
Y132204D01*
X144895D01*
X143583Y133516D01*
X143255D01*
X145223Y173761D02*
Y174417D01*
Y174089D01*
X143583D01*
X143255Y174417D01*
Y174745D01*
X143583Y175073D01*
X145223Y171793D02*
X144895Y172449D01*
X144239Y173105D01*
X143583D01*
X143255Y172777D01*
Y172121D01*
X143583Y171793D01*
X143911D01*
X144239Y172121D01*
Y173105D01*
X160887Y49453D02*
Y50109D01*
Y49781D01*
X159247D01*
X158919Y50109D01*
Y50437D01*
X159247Y50765D01*
X160887Y47485D02*
Y48797D01*
X159903D01*
X160231Y48141D01*
Y47813D01*
X159903Y47485D01*
X159247D01*
X158919Y47813D01*
Y48469D01*
X159247Y48797D01*
X9444Y9189D02*
Y9845D01*
Y9517D01*
X7804D01*
X7476Y9845D01*
Y10173D01*
X7804Y10501D01*
X7476Y7549D02*
X9444D01*
X8460Y8534D01*
Y7222D01*
X160887Y92184D02*
Y92839D01*
Y92511D01*
X159247D01*
X158919Y92839D01*
Y93167D01*
X159247Y93495D01*
X160559Y91527D02*
X160887Y91199D01*
Y90544D01*
X160559Y90216D01*
X160231D01*
X159903Y90544D01*
Y90872D01*
Y90544D01*
X159575Y90216D01*
X159247D01*
X158919Y90544D01*
Y91199D01*
X159247Y91527D01*
X16083Y156616D02*
Y157272D01*
Y156944D01*
X14443D01*
X14115Y157272D01*
Y157600D01*
X14443Y157928D01*
X14115Y154648D02*
Y155960D01*
X15427Y154648D01*
X15755D01*
X16083Y154976D01*
Y155632D01*
X15755Y155960D01*
X95383Y32321D02*
X95711Y32649D01*
Y33305D01*
X95383Y33633D01*
X94071D01*
X93743Y33305D01*
Y32649D01*
X94071Y32321D01*
X93743Y31665D02*
Y31009D01*
Y31337D01*
X95711D01*
X95383Y31665D01*
Y30025D02*
X95711Y29697D01*
Y29041D01*
X95383Y28713D01*
X95055D01*
X94727Y29041D01*
X94399Y28713D01*
X94071D01*
X93743Y29041D01*
Y29697D01*
X94071Y30025D01*
X94399D01*
X94727Y29697D01*
X95055Y30025D01*
X95383D01*
X94727Y29697D02*
Y29041D01*
X70255Y174920D02*
X68287D01*
Y173937D01*
X68615Y173609D01*
X68943D01*
X69271Y173937D01*
Y174920D01*
Y173937D01*
X69599Y173609D01*
X69927D01*
X70255Y173937D01*
Y174920D01*
X68287Y171641D02*
Y172953D01*
X69599Y171641D01*
X69927D01*
X70255Y171969D01*
Y172625D01*
X69927Y172953D01*
X12795Y87926D02*
X10827D01*
Y86942D01*
X11155Y86614D01*
X11483D01*
X11811Y86942D01*
Y87926D01*
Y86942D01*
X12139Y86614D01*
X12467D01*
X12795Y86942D01*
Y87926D01*
X10827Y85958D02*
Y85302D01*
Y85630D01*
X12795D01*
X12467Y85958D01*
M02*
