M48
;Layer_Color=9474304
;FILE_FORMAT=2:5
INCH,LZ
;TYPE=PLATED
T1F00S00C0.01000
T2F00S00C0.01181
T3F00S00C0.01575
T4F00S00C0.02559
T5F00S00C0.03937
;TYPE=NON_PLATED
T6F00S00C0.03543
T7F00S00C0.11811
%
T01
X0015748Y0027559
Y0035433
X0023622
Y0027559
X0031496
Y0035433
X003937
Y0027559
X0047244
Y0035433
X0066929
X007123Y0041293
X0073877Y0024839
X008446Y0024946
X0096377Y0022193
Y0015127
X0104515
Y0022193
X0111285Y0011196
X0118211Y0027077
X0116735Y0050696
X0116839Y0069062
X0108131Y0071611
X0124103Y0076284
X0116882Y0088178
X0131888Y0098442
X0146765Y0107916
Y0114995
Y0121056
X0149606Y0137795
X0141732
X0091695Y0135943
X0094488Y011811
X0086614
X007874
X0066929Y0125984
X0055118
Y0137795
X0066929
X0043307
Y0149606
X0015551Y013587
X0015594Y0116352
X0022702
X0015748Y0090551
Y0082677
X0007874
Y0090551
X003916Y0088739
X003937Y0098425
X0051181
X004984Y0088739
X0049894Y0075185
X0079749Y0073928
X007874Y0090551
X0066929
X0091244Y0087291
X0092157Y0096543
X0094812Y0061195
X0078993Y0056958
X0102672Y0040982
X0149972Y0026754
X0142066Y0018832
X0153543Y0074803
X0150928Y0085264
X0158465
X0162279Y0097531
Y0105118
X0169291Y0137795
Y0145669
X0156933Y0043045
Y0033005
Y0018271
X0174436Y0015683
X0141732Y015748
Y0169291
X0110236
Y015748
X0074803Y0169291
X0062992
X0051181
X003937
X0027559
T02
X0017Y005
X0026
X0035
X0041
X0067Y0031
X0088Y0041
Y0047
X0085Y0057
X0091Y0065
X0095Y0041
X0105Y0047
X0113Y0043
X0124Y0049
Y0055
X0139Y0058
X0139244Y0087247
X0124917Y0085855
X0122Y0104
T03
X0037Y007
X0027Y0122
X0085039Y0103584
T04
X0161Y011622
Y013
Y015222
Y0166
T05
X0074Y0007
X0084
X0094
X0104
X0057Y0152
X0027079
X0007Y0153
Y0143
Y0133
Y0123
Y0113
X0168Y0088
Y0078
Y0068
Y0058
Y0046
Y0036
Y0026
T06
X0014898Y001821
X0046394
T07
X0168Y0009
X0009Y0168
M30
